<svg xmlns="http://www.w3.org/2000/svg" version="1.1" xmlns:xlink="http://www.w3.org/1999/xlink" xmlns:svgjs="http://svgjs.dev/svgjs" width="43.900002mm" height="50.799999mm"><svg width="43.900002mm" height="50.799999mm" viewBox="0 0 43.900001 50.799999" version="1.1" id="SvgjsSvg1492" xml:space="preserve" sodipodi:docname="kvkapiR.svg" inkscape:version="1.4 (e7c3feb100, 2024-10-09)" xmlns:inkscape="http://www.inkscape.org/namespaces/inkscape" xmlns:sodipodi="http://sodipodi.sourceforge.net/DTD/sodipodi-0.dtd" xmlns:xlink="http://www.w3.org/1999/xlink" xmlns="http://www.w3.org/2000/svg" xmlns:svg="http://www.w3.org/2000/svg"><sodipodi:namedview id="SvgjsSodipodi:namedview1491" pagecolor="#ffffff" bordercolor="#666666" borderopacity="1.0" inkscape:showpageshadow="2" inkscape:pageopacity="0.0" inkscape:pagecheckerboard="0" inkscape:deskcolor="#d1d1d1" inkscape:document-units="mm" inkscape:zoom="3.6733724" inkscape:cx="51.451359" inkscape:cy="85.207806" inkscape:window-width="1920" inkscape:window-height="1011" inkscape:window-x="0" inkscape:window-y="0" inkscape:window-maximized="1" inkscape:current-layer="layer2"></sodipodi:namedview><defs id="SvgjsDefs1490"><rect x="47.458754" y="98.414468" width="60.197682" height="34.220259" id="SvgjsRect1489"></rect><rect x="40.677966" y="54.508474" width="96.406779" height="48" id="SvgjsRect1488"></rect><linearGradient gradientUnits="userSpaceOnUse" y2="161.62906" x2="79.058426" y1="157.91002" x1="100.54038" id="SvgjsLinearGradient1487" xlink:href="#linearGradient880"></linearGradient><linearGradient id="SvgjsLinearGradient1486"><stop id="SvgjsStop1485" offset="0" style="stop-color:#784421;stop-opacity:1;"></stop><stop id="SvgjsStop1484" offset="1" style="stop-color:#784421;stop-opacity:0;"></stop></linearGradient><linearGradient gradientUnits="userSpaceOnUse" y2="187.636" x2="162.18832" y1="188.57594" x1="188.85896" id="SvgjsLinearGradient1483" xlink:href="#linearGradient880"></linearGradient><linearGradient gradientUnits="userSpaceOnUse" y2="208.92482" x2="-1.8827039" y1="261.78836" x1="-1.8827039" id="SvgjsLinearGradient1482" xlink:href="#linearGradient1406"></linearGradient><linearGradient id="SvgjsLinearGradient1481"><stop id="SvgjsStop1480" offset="0" style="stop-color:#000000;stop-opacity:1;"></stop><stop id="SvgjsStop1479" offset="1" style="stop-color:#000000;stop-opacity:0;"></stop></linearGradient><radialGradient gradientUnits="userSpaceOnUse" gradientTransform="matrix(1,0,0,1.4639338,0,-64.581152)" r="56.134296" fy="127.04554" fx="140.49042" cy="127.04554" cx="140.49042" id="SvgjsRadialGradient1478" xlink:href="#linearGradient1606"></radialGradient><linearGradient id="SvgjsLinearGradient1477"><stop id="SvgjsStop1476" offset="0" style="stop-color:#fdbc5c;stop-opacity:1"></stop><stop id="SvgjsStop1475" offset="1" style="stop-color:#fdd08c;stop-opacity:0;"></stop></linearGradient><linearGradient gradientUnits="userSpaceOnUse" y2="276.31" y1="233.23" x2="529.53003" x1="479.79001" id="SvgjsLinearGradient1474"><stop id="SvgjsStop1473" stop-color="#fff" offset="0"></stop><stop id="SvgjsStop1472" stop-opacity="0" stop-color="#fff" offset="1"></stop></linearGradient><clipPath id="SvgjsClipPath1471"><path id="SvgjsPath1470" fill="#009688" fill-rule="evenodd" d="m 503.51,222.01 c -20.04,0 -36.286,16.246 -36.286,36.286 0,1.925 0.151,3.814 0.44,5.657 1.402,6.762 6.687,9.389 6.687,9.389 1.108,0.908 2.484,1.836 4.073,2.752 l -0.13,-0.004 c 0,0 3.331,18.563 9.444,18.41 4.622,-0.116 8.25,-9.453 14.128,-9.265 5.872,0.188 8.256,9.151 14.1,9.213 3.374,0.036 6.307,-5.744 8.16,-10.528 0.586,-0.12 1.17,-0.25 1.749,-0.392 5.556,5.254 18.398,10.599 23.87,12.412 a 0.533,0.533 0 0 0 0.177,-0.14 c 1.396,-1.82 -7.954,-16.01 -12.983,-23.372 a 36.17,36.17 0 0 0 2.856,-14.132 c 0,-20.04 -16.246,-36.286 -36.286,-36.286 z"></path></clipPath><filter color-interpolation-filters="sRGB" height="1.1272249" width="1.1135408" y="-0.063612454" x="-0.056770418" id="SvgjsFilter1469"><feGaussianBlur id="SvgjsFeGaussianBlur1468" stdDeviation="7.406"></feGaussianBlur></filter><filter color-interpolation-filters="sRGB" height="1.071391" width="1.072607" y="-0.035695516" x="-0.036303554" id="SvgjsFilter1467"><feGaussianBlur id="SvgjsFeGaussianBlur1466" stdDeviation="1.279"></feGaussianBlur></filter><style id="SvgjsStyle1465">.cls-1{fill:#ed6b06;}.cls-2{fill:#fff;}</style><clipPath clipPathUnits="userSpaceOnUse" id="SvgjsClipPath1464"><rect style="fill:#000000;stroke:#000000;stroke-width:0;stroke-linejoin:bevel;paint-order:stroke markers fill;stop-color:#000000" id="SvgjsRect1463" width="20" height="200" x="530" y="595"></rect></clipPath><clipPath clipPathUnits="userSpaceOnUse" id="SvgjsClipPath1462"><rect style="fill:#000000;stroke:#000000;stroke-width:0;stroke-linejoin:bevel;paint-order:stroke markers fill;stop-color:#000000" id="SvgjsRect1461" width="20" height="200" x="530" y="595"></rect></clipPath><clipPath clipPathUnits="userSpaceOnUse" id="SvgjsClipPath1460"><rect style="fill:#ff0000;stroke:none;stroke-width:3;stroke-linecap:square;stroke-linejoin:miter;paint-order:stroke markers fill;stop-color:#000000" id="SvgjsRect1459" width="78" height="45.033199" x="763.61322" y="452.82422"></rect></clipPath></defs><g id="SvgjsG1458" style="display:none" inkscape:label="Bleed"><path id="SvgjsPath1457" style="fill:#000000;fill-opacity:1;stroke-width:0.383469" d="m 21.877137,-2.3145864 -0.998389,0.575159 -21.9454313,12.7031014 -0.933276,0.577226 v 1.156001 25.406205 1.156 l 0.932759,0.57722 21.9790213,12.70311 0.979785,0.57515 0.988571,-0.57515 22.016224,-12.70311 1.00356,-0.57722 v -1.156 V 12.696901 11.5409 L 44.892271,10.963674 22.875526,-1.7394274 Z m 0.0072,2.89336402 0.89452,0.51469698 19.718692,11.3770844 0.902272,0.516764 v 1.035595 22.754168 1.03559 l -0.898656,0.51677 -19.718174,11.37708 -0.885218,0.5147 -0.877466,-0.5147 L 1.3352027,38.329446 0.49959362,37.812676 V 36.777086 14.022918 12.987323 L 1.3357187,12.470559 20.990851,1.0934746 Z" inkscape:label="See https://nlnet.nl/hex"></path></g><g id="SvgjsG1456" transform="matrix(0.26500347,0,0,0.26549077,3.3461222,-1.7209317)" style="display:inline;fill:#96c00a;fill-opacity:1" inkscape:label="Sticker surface (visible)"><polygon points="36.911,135.321 39.346,136.825 96.715,169.921 99.273,171.419 101.853,169.921 159.319,136.825 161.938,135.321 161.938,132.309 161.938,66.116 161.938,63.104 159.308,61.6 101.841,28.504 99.234,27.006 96.629,28.504 39.347,61.6 36.911,63.104 36.911,66.116 36.911,132.309 " id="SvgjsPolygon1455" style="display:inline;fill:#e6f2f5;fill-opacity:1" transform="matrix(1.3249794,0,0,1.324976,-61.533022,-29.300227)" inkscape:label="Background Hexagon"></polygon><path id="SvgjsPath1454" style="display:inline;fill:#00526e;fill-opacity:1;stroke-width:1.32497" d="m 69.949472,6.4820816 -3.45118,1.98438 -75.8964796,43.8515594 -3.2285204,1.99219 v 3.99023 87.705079 3.99024 l 3.2265704,1.99218 76.0136696,43.85157 3.38867,1.98632 3.41797,-1.98632 76.140618,-43.85157 3.47071,-1.99218 v -3.99024 -87.705079 -3.99023 L 149.54712,52.318021 73.404542,8.4664616 Z m -0.02735,4.4843794 78.835938,45.5957 v 91.183599 l -78.835938,45.5957 -78.1757796,-45.21289 -0.66016,-0.38281 V 56.562161 Z" inkscape:label="Monocolor border"></path></g><g inkscape:groupmode="layer" id="SvgjsG1453" inkscape:label="Content"><path style="fill:#00526e;fill-opacity:1;stroke-width:0.223889" d="m 4.8325184,17.843077 v -4.561271 h 1.835535 1.835535 l 0.01563,1.900804 0.01563,1.900803 1.3564173,-1.876408 c 0.7460303,-1.032025 1.3859953,-1.88776 1.4221453,-1.901632 0.03615,-0.01388 0.937879,-0.01818 2.003841,-0.0096 l 1.938113,0.01563 -1.538712,1.965937 c -0.846292,1.081265 -1.538712,1.994496 -1.538712,2.029403 0,0.0349 0.746389,1.182577 1.658643,2.550379 0.912254,1.367804 1.658644,2.50048 1.658644,2.517059 0,0.01657 -0.926323,0.02951 -2.058495,0.02873 l -2.058495,-0.0013 -1.158249,-1.879162 C 9.5058297,19.363783 9.0213947,18.635517 8.9565117,18.623022 c -0.234755,-0.04521 -0.3856073,0.04634 -0.4482953,0.272065 -0.03575,0.128719 -0.0617,0.911007 -0.06189,1.865512 l -3.36e-4,1.643835 h -1.806737 -1.806736 z m 14.2344446,4.462189 c -0.02124,-0.05534 -0.748391,-2.101594 -1.615899,-4.547229 l -1.577287,-4.446612 1.894827,-0.01565 c 1.121817,-0.0093 1.908548,0.0068 1.928459,0.03941 0.0185,0.03028 0.380169,1.1752 0.803715,2.544272 0.423546,1.369071 0.787458,2.470923 0.808694,2.448558 0.02853,-0.03005 1.346387,-4.18382 1.568104,-4.942544 0.02801,-0.09584 0.168582,-0.103665 1.86266,-0.103665 1.0078,0 1.831435,0.01999 1.830305,0.04443 -0.0011,0.02444 -0.754929,2.070343 -1.675103,4.546461 l -1.673044,4.502034 -2.05841,0.01558 c -1.890602,0.01431 -2.061558,0.0074 -2.097021,-0.08504 z m 8.631143,-4.462189 v -4.561271 h 1.835535 1.835535 l 0.01563,1.900804 0.01563,1.900803 1.356418,-1.876408 c 0.746029,-1.032025 1.385995,-1.88776 1.422146,-1.901632 0.03615,-0.01388 0.937878,-0.01818 2.003839,-0.0096 l 1.938115,0.01563 -1.538712,1.965937 c -0.846294,1.081265 -1.538713,1.994496 -1.538713,2.029403 0,0.0349 0.74639,1.182577 1.658643,2.550379 0.912253,1.367804 1.658643,2.50048 1.658643,2.517059 0,0.01657 -0.926322,0.02951 -2.058495,0.02873 l -2.058495,-0.0013 -1.158247,-1.879162 c -0.71416,-1.158666 -1.198596,-1.886932 -1.263479,-1.899427 -0.234754,-0.04521 -0.385606,0.04634 -0.448295,0.272065 -0.03575,0.128719 -0.0617,0.911007 -0.06189,1.865512 l -2.23e-4,1.643835 h -1.806739 -1.806736 z" id="SvgjsPath1452"></path><g id="SvgjsG1451" transform="matrix(0.47613308,0,0,0.47613308,-29.257393,-33.787254)" inkscape:transform-center-x="-13.718513" inkscape:transform-center-y="19.646265"><path style="fill:#c6c8cb;stroke-width:0.0749737" d="m 115.59976,155.35554 c 1.09375,-0.003 2.88353,-0.003 3.97728,0 1.09375,0.003 0.19886,0.005 -1.98864,0.005 -2.1875,0 -3.08239,-0.002 -1.98864,-0.005 z m 17.22826,0 c 1.29559,-0.003 3.41565,-0.003 4.71124,0 1.29559,0.003 0.23556,0.005 -2.35562,0.005 -2.59118,0 -3.65121,-0.002 -2.35562,-0.005 z m -19.22686,-2.40522 -0.01,-2.39033 -0.0694,-0.0123 -0.0694,-0.0123 0.062,-0.003 c 0.0341,-0.001 0.0721,0.01 0.0844,0.0243 0.0164,0.0197 0.021,0.6641 0.0173,2.40521 l -0.005,2.37829 z m 16.72246,2.16221 c -0.033,-0.0655 -0.0556,-0.11901 -0.0502,-0.11901 0.005,0 0.037,0.0536 0.07,0.11901 0.0331,0.0655 0.0556,0.11903 0.0502,0.11903 -0.005,0 -0.0369,-0.0536 -0.07,-0.11903 z m -0.3273,-0.63477 c -0.0276,-0.0545 -0.0458,-0.0992 -0.0403,-0.0992 0.005,0 0.0325,0.0446 0.0602,0.0992 0.0276,0.0546 0.0458,0.0992 0.0403,0.0992 -0.005,0 -0.0325,-0.0446 -0.0602,-0.0992 z m -0.25788,-0.49592 c -0.0276,-0.0546 -0.0458,-0.0992 -0.0403,-0.0992 0.005,0 0.0325,0.0446 0.0602,0.0992 0.0276,0.0546 0.0458,0.0992 0.0403,0.0992 -0.005,0 -0.0325,-0.0446 -0.0602,-0.0992 z m -0.24796,-0.47608 c -0.0223,-0.0437 -0.036,-0.0794 -0.0306,-0.0794 0.005,0 0.0281,0.0357 0.0504,0.0794 0.0223,0.0436 0.036,0.0793 0.0306,0.0793 -0.005,0 -0.0281,-0.0357 -0.0504,-0.0793 z m -0.19837,-0.3769 c -0.0223,-0.0437 -0.036,-0.0794 -0.0306,-0.0794 0.005,0 0.0281,0.0357 0.0504,0.0794 0.0223,0.0436 0.036,0.0793 0.0306,0.0793 -0.005,0 -0.0281,-0.0357 -0.0504,-0.0793 z m -0.19837,-0.3769 c -0.0223,-0.0436 -0.036,-0.0794 -0.0306,-0.0794 0.005,0 0.0281,0.0357 0.0504,0.0794 0.0223,0.0436 0.036,0.0793 0.0306,0.0793 -0.005,0 -0.0281,-0.0357 -0.0504,-0.0793 z m -0.35706,-0.67446 c -0.0223,-0.0436 -0.036,-0.0793 -0.0306,-0.0793 0.005,0 0.0281,0.0357 0.0504,0.0793 0.0223,0.0437 0.036,0.0794 0.0306,0.0794 -0.005,0 -0.0281,-0.0357 -0.0504,-0.0794 z m -0.15869,-0.29755 c -0.0223,-0.0436 -0.036,-0.0793 -0.0306,-0.0793 0.005,0 0.0281,0.0357 0.0504,0.0793 0.0223,0.0436 0.036,0.0793 0.0306,0.0793 -0.005,0 -0.0281,-0.0357 -0.0504,-0.0793 z m -7.00239,-1.18827 c 0,-0.0182 0.11183,-0.0353 0.32731,-0.0501 0.10295,-0.007 0.0853,-0.002 -0.0684,0.0187 -0.11397,0.0155 -0.21886,0.0327 -0.23308,0.0381 -0.0142,0.005 -0.0259,0.002 -0.0259,-0.007 z m 0.51079,-0.0754 c 0.0246,-0.005 0.0647,-0.005 0.0893,0 0.0246,0.005 0.004,0.009 -0.0446,0.009 -0.0491,0 -0.0692,-0.004 -0.0446,-0.009 z m -9.54645,-0.0973 c -0.22475,-0.0345 -0.27315,-0.0485 -0.11902,-0.0345 0.16067,0.0146 0.43143,0.0614 0.35706,0.0617 -0.0327,1.5e-4 -0.13985,-0.0121 -0.23804,-0.0272 z m 10.29529,0.001 c 0.0873,-0.0143 0.18101,-0.0254 0.20829,-0.0249 0.0273,6.2e-4 -0.0174,0.0127 -0.0992,0.027 -0.0818,0.0143 -0.17556,0.0255 -0.20829,0.0249 -0.0327,-6.2e-4 0.0119,-0.0128 0.0992,-0.027 z m -10.94991,-0.10473 c -0.16365,-0.0283 -0.28416,-0.0541 -0.26779,-0.0572 0.0164,-0.003 0.17704,0.0202 0.35706,0.0517 0.18002,0.0315 0.30052,0.0572 0.2678,0.0572 -0.0327,-8e-5 -0.19342,-0.0233 -0.35707,-0.0517 z m 11.426,0.035 c 0.0436,-0.009 0.10166,-0.0159 0.12894,-0.0153 0.0318,8.3e-4 0.0211,0.007 -0.0298,0.0175 -0.0436,0.009 -0.10166,0.0159 -0.12894,0.0153 -0.0318,-8.3e-4 -0.0211,-0.007 0.0298,-0.0176 z m -11.86241,-0.11133 c -0.0218,-0.005 -0.26617,-0.0531 -0.54301,-0.1074 -4.63794,-0.90963 -8.90479,-2.82846 -11.957726,-5.37748 -0.983016,-0.82075 -1.891888,-1.75998 -2.58816,-2.6746 -2.100125,-2.75869 -2.847595,-5.7574 -2.217648,-8.8968 0.495081,-2.46727 1.909305,-4.88785 4.02812,-6.89451 1.826792,-1.7301 4.032194,-3.14822 6.652934,-4.27797 4.55373,-1.96302 9.94394,-2.82418 15.3636,-2.45452 8.04073,0.54842 15.17531,3.82235 18.82414,8.63805 1.16173,1.53325 1.94032,3.18893 2.30169,4.89462 0.0329,0.15541 0.0591,0.29824 0.0582,0.31739 -8.3e-4,0.0191 -0.0316,-0.10546 -0.0683,-0.27691 -0.65357,-3.05928 -2.54342,-5.82561 -5.57366,-8.15863 -2.98855,-2.30093 -7.08931,-4.03753 -11.41089,-4.83232 l -0.34196,-0.0629 -0.51102,0.29291 c -0.28107,0.16109 -0.52442,0.30432 -0.54078,0.31828 -0.0164,0.014 -0.4984,0.29475 -1.07119,0.62398 -0.57279,0.32923 -1.07714,0.62322 -1.12078,0.65331 -0.0436,0.0301 -0.54352,0.32088 -1.11086,0.64621 -0.56733,0.32532 -1.04936,0.60644 -1.07119,0.62471 -0.0218,0.0183 -0.50385,0.29946 -1.07118,0.62487 -0.56733,0.32542 -1.06722,0.61636 -1.11086,0.64653 -0.0436,0.0302 -0.54799,0.32421 -1.12078,0.65342 -0.57279,0.32922 -1.0459,0.60485 -1.05135,0.61252 -0.005,0.008 -0.2573,0.15588 -0.55964,0.32937 -0.30235,0.17348 -0.54697,0.31818 -0.5436,0.32154 0.006,0.006 0.0802,-0.013 0.78022,-0.19952 1.17732,-0.31369 2.63202,-0.56754 3.99283,-0.69675 1.03183,-0.098 1.72586,-0.12919 2.87837,-0.12944 3.16768,-6.2e-4 6.01738,0.31877 8.50795,0.95379 5.20164,1.32624 8.52833,4.00226 9.50072,7.64245 0.0655,0.24535 0.16063,0.70137 0.15829,0.75911 -8.3e-4,0.0204 -0.0309,-0.10564 -0.0669,-0.28021 -0.29288,-1.42112 -0.90856,-2.66662 -1.89254,-3.8285 -0.23363,-0.27587 -0.83674,-0.87361 -1.13358,-1.1235 -0.77543,-0.65276 -1.58774,-1.18277 -2.57879,-1.68257 -2.63201,-1.32736 -5.99995,-2.11371 -10.0275,-2.34124 -1.66686,-0.0942 -3.8033,-0.0814 -4.93936,0.0296 -0.0545,0.005 -0.24201,0.0235 -0.41657,0.0404 -4.51375,0.43659 -8.59014,2.01267 -11.25738,4.35251 -0.30557,0.26806 -0.82408,0.78649 -1.0837,1.08355 -0.98562,1.12771 -1.65943,2.37812 -1.96061,3.6384 -0.13079,0.54725 -0.19303,1.08146 -0.19415,1.66629 -0.001,0.5941 0.0609,1.07656 0.2128,1.65637 0.77362,2.95197 3.69761,5.65774 7.98485,7.38895 0.55425,0.22381 1.82954,0.67018 1.9936,0.69779 0.0396,0.007 0.0397,-0.007 0.0496,-8.46364 l 0.01,-8.47031 0.005,8.46039 c 0.003,4.65322 -0.002,8.47156 -0.0111,8.4852 -0.012,0.0188 -0.106,-0.004 -0.39148,-0.0935 -1.73307,-0.54592 -3.49677,-1.35298 -4.89123,-2.2382 -1.41866,-0.90057 -2.62989,-1.98894 -3.45939,-3.1085 -0.87454,-1.18034 -1.37161,-2.3934 -1.50847,-3.68131 -0.0386,-0.36359 -0.0288,-1.14147 0.019,-1.4993 0.2123,-1.58963 0.85977,-2.99587 2.0124,-4.37081 0.13262,-0.1582 0.24116,-0.29403 0.2412,-0.30184 8e-5,-0.0146 -0.14085,0.0613 -0.15862,0.0854 -0.005,0.007 -0.47856,0.28313 -1.05135,0.61272 -0.57279,0.32959 -1.08606,0.62893 -1.14062,0.66519 -0.0546,0.0363 -0.54551,0.32196 -1.09102,0.63488 -0.54551,0.31292 -1.02754,0.59354 -1.07119,0.6236 -0.0436,0.0301 -0.5346,0.31627 -1.09102,0.63603 -0.556421,0.31975 -1.047382,0.6059 -1.091023,0.63587 -0.04364,0.03 -0.547992,0.32408 -1.12078,0.65357 -0.572786,0.32949 -1.045895,0.6052 -1.051349,0.61269 -0.0055,0.008 -0.496417,0.29333 -1.091024,0.63519 -0.594609,0.34187 -1.085568,0.62772 -1.091024,0.63522 -0.0055,0.008 -0.09249,0.061 -0.193408,0.1189 -0.100921,0.0579 -0.183491,0.11539 -0.183491,0.12777 0,0.069 0.197961,0.80423 0.297218,1.10389 0.167194,0.50475 0.329923,0.8989 0.585318,1.41771 0.261635,0.53147 0.456368,0.87001 0.793019,1.37865 1.80096,2.72103 4.809124,5.07961 8.639584,6.77396 1.95046,0.86276 4.18472,1.55932 6.39195,1.99277 0.65803,0.12922 0.6885,0.13578 0.63027,0.13557 -0.0273,-8e-5 -0.0674,-0.004 -0.0893,-0.009 z m 12.69555,-0.0274 c 0.0982,-0.0199 0.19639,-0.0357 0.21821,-0.0351 0.0218,6.2e-4 -0.0407,0.0176 -0.13886,0.0377 -0.0982,0.0201 -0.19638,0.0359 -0.21821,0.0351 -0.0218,-8.2e-4 0.0407,-0.0178 0.13886,-0.0377 z m 0.31739,-0.0585 c 0.0327,-0.008 0.0818,-0.0151 0.1091,-0.0151 0.0442,0 0.0432,0.002 -0.01,0.0151 -0.0327,0.008 -0.0818,0.0151 -0.1091,0.0151 -0.0442,0 -0.0432,-0.002 0.01,-0.0151 z m 0.7538,-0.14923 c 0.0546,-0.014 0.11704,-0.0253 0.13886,-0.025 0.0218,2.1e-4 -0.005,0.0119 -0.0595,0.0259 -0.0546,0.014 -0.11704,0.0253 -0.13886,0.025 -0.0218,-2.1e-4 0.005,-0.0119 0.0595,-0.0259 z m 0.22812,-0.0491 c 0.0273,-0.009 0.0674,-0.0159 0.0893,-0.0159 0.0314,0 0.0293,0.003 -0.01,0.0159 -0.0273,0.009 -0.0674,0.0159 -0.0893,0.0159 -0.0314,0 -0.0293,-0.003 0.01,-0.0159 z m 0.17853,-0.0397 c 0.0273,-0.009 0.0675,-0.0159 0.0893,-0.0159 0.0314,0 0.0294,0.003 -0.01,0.0159 -0.0273,0.009 -0.0675,0.0159 -0.0893,0.0159 -0.0314,0 -0.0294,-0.003 0.01,-0.0159 z m 0.2678,-0.0608 c 0.0764,-0.0206 0.15225,-0.0368 0.16861,-0.0361 0.0164,8.3e-4 -0.0327,0.0182 -0.1091,0.0388 -0.0764,0.0206 -0.15225,0.0368 -0.16861,0.0361 -0.0164,-8.3e-4 0.0327,-0.0182 0.1091,-0.0388 z m 0.53559,-0.12883 c 0.18548,-0.0478 0.34585,-0.0843 0.35638,-0.0811 0.0221,0.007 -0.6305,0.17248 -0.6684,0.16977 -0.0139,-0.001 0.12655,-0.0409 0.31202,-0.0887 z m 0.49592,-0.12504 c 0.0218,-0.01 0.0709,-0.023 0.10911,-0.0299 0.0477,-0.009 0.057,-0.007 0.0297,0.005 -0.0218,0.01 -0.0709,0.023 -0.1091,0.03 -0.0477,0.009 -0.057,0.007 -0.0298,-0.005 z m 0.21821,-0.0595 c 0.0218,-0.01 0.0709,-0.023 0.1091,-0.03 0.0477,-0.009 0.057,-0.007 0.0298,0.005 -0.0218,0.01 -0.0709,0.023 -0.10911,0.03 -0.0477,0.009 -0.057,0.007 -0.0297,-0.005 z m -5.27163,-2.31858 c 0.16638,-0.003 0.43864,-0.003 0.60502,0 0.16638,0.003 0.0303,0.006 -0.30251,0.006 -0.33276,0 -0.46889,-0.003 -0.30251,-0.006 z m 1.05213,-0.0197 c 0.0686,-0.004 0.17573,-0.004 0.23804,8e-5 0.0623,0.004 0.006,0.007 -0.12476,0.007 -0.13092,-4e-5 -0.1819,-0.003 -0.11328,-0.007 z m 0.46539,-0.0197 c 0.0518,-0.004 0.13662,-0.004 0.18844,0 0.0518,0.004 0.009,0.007 -0.0942,0.007 -0.10365,0 -0.14605,-0.003 -0.0942,-0.007 z m 0.35706,-0.0197 c 0.0409,-0.004 0.10786,-0.004 0.14877,0 0.0409,0.004 0.007,0.008 -0.0744,0.008 -0.0818,0 -0.11531,-0.004 -0.0744,-0.008 z m 0.28719,-0.0197 c 0.0352,-0.004 0.0977,-0.004 0.13886,-1.5e-4 0.0412,0.004 0.0123,0.008 -0.064,0.008 -0.0764,8e-5 -0.11005,-0.003 -0.0748,-0.008 z m 0.27851,-0.0199 c 0.0357,-0.004 0.0892,-0.004 0.11902,2.1e-4 0.0298,0.005 6.2e-4,0.008 -0.0648,0.008 -0.0655,-7e-5 -0.0898,-0.004 -0.0542,-0.008 z m 0.22777,-0.0197 c 0.03,-0.005 0.0791,-0.005 0.1091,0 0.03,0.005 0.005,0.008 -0.0546,0.008 -0.06,0 -0.0846,-0.004 -0.0545,-0.008 z m 0.28267,-0.0262 c 0.0655,-0.008 0.15473,-0.0145 0.19837,-0.0141 0.0681,6.2e-4 0.0639,0.003 -0.0297,0.0157 -0.06,0.008 -0.14928,0.0147 -0.19837,0.0141 -0.0815,-8.3e-4 -0.0789,-0.002 0.0298,-0.0157 z m 0.32235,-0.0331 c 0.0245,-0.005 0.0647,-0.005 0.0893,0 0.0246,0.005 0.004,0.009 -0.0446,0.009 -0.0491,0 -0.0692,-0.004 -0.0446,-0.009 z m 0.23308,-0.0266 c 0.0545,-0.008 0.13043,-0.015 0.16862,-0.0145 0.0562,8.2e-4 0.0505,0.004 -0.0298,0.0164 -0.0545,0.009 -0.13043,0.015 -0.16861,0.0145 -0.0562,-8.3e-4 -0.0505,-0.004 0.0298,-0.0164 z m 0.45625,-0.0571 c 0.0374,-0.009 0.0571,-0.0243 0.0531,-0.0423 -0.005,-0.0219 -8.2e-4,-0.0232 0.0171,-0.006 0.0361,0.0354 0.004,0.0665 -0.0665,0.0639 l -0.0633,-0.002 z m -0.17927,-0.42304 c -0.0306,-0.0464 -0.0429,-0.0738 -0.0274,-0.061 0.0298,0.0246 0.10574,0.14534 0.0914,0.14534 -0.005,0 -0.0334,-0.0379 -0.064,-0.0843 z m 8.73771,-0.0369 c -0.0123,-0.023 -0.0148,-0.0483 -0.006,-0.0563 0.009,-0.008 0.19078,-0.12869 0.40353,-0.26819 2.30073,-1.50859 4.12637,-3.3629 5.23472,-5.3169 0.099,-0.17456 0.18956,-0.33078 0.2012,-0.34714 0.0534,-0.0751 -0.18027,0.35337 -0.31376,0.57527 -0.9913,1.64773 -2.46099,3.20069 -4.29893,4.5425 -0.23461,0.17127 -1.09205,0.75334 -1.19283,0.80974 -0.0257,0.0144 -0.0273,0.0258 -0.009,0.0603 0.0125,0.0234 0.0183,0.0426 0.0129,0.0426 -0.005,0 -0.02,-0.0188 -0.0323,-0.0418 z m -9.14363,-0.48387 c -0.0482,-0.0491 -0.0831,-0.0893 -0.0777,-0.0893 0.005,0 0.0493,0.0402 0.0975,0.0893 0.0482,0.0491 0.0831,0.0893 0.0777,0.0893 -0.005,0 -0.0493,-0.0402 -0.0975,-0.0893 z m -0.19836,-0.19837 c -0.0482,-0.0491 -0.0831,-0.0893 -0.0777,-0.0893 0.005,0 0.0493,0.0402 0.0975,0.0893 0.0482,0.0491 0.0832,0.0893 0.0777,0.0893 -0.005,0 -0.0493,-0.0402 -0.0975,-0.0893 z m -3.454,-0.65031 c 0.009,-0.009 0.12199,-0.013 0.252,-0.01 l 0.2364,0.006 -0.252,0.01 c -0.13861,0.005 -0.24498,0.003 -0.2364,-0.006 z m 0.84132,-0.0289 c 0.0741,-0.004 0.19015,-0.004 0.25788,6e-5 0.0677,0.004 0.007,0.007 -0.13472,0.007 -0.14183,-3e-5 -0.19725,-0.003 -0.12316,-0.007 z m 0.80213,4.1e-4 c 0.0352,-0.004 0.0977,-0.004 0.13885,-1.5e-4 0.0412,0.004 0.0124,0.008 -0.064,0.008 -0.0764,7e-5 -0.11005,-0.003 -0.0748,-0.008 z m 9.795,-0.38219 c -0.007,-0.0112 8.2e-4,-0.0146 0.0182,-0.008 0.017,0.007 0.11582,-0.034 0.22419,-0.0919 0.10662,-0.057 0.18493,-0.0945 0.17402,-0.0834 -0.0285,0.029 -0.35613,0.20289 -0.38232,0.20289 -0.0121,0 -0.0274,-0.009 -0.0341,-0.0196 z m 0.58504,-0.28371 c 0,-0.005 0.0647,-0.0477 0.14382,-0.0944 0.22739,-0.13417 0.79674,-0.51095 1.04639,-0.69247 0.90852,-0.66057 1.70315,-1.42172 2.35138,-2.2523 0.20137,-0.25801 0.57736,-0.81733 0.72342,-1.07614 0.057,-0.10092 0.10778,-0.18349 0.11295,-0.18349 0.015,0 -0.12695,0.24838 -0.28756,0.50297 -0.84786,1.34395 -2.04941,2.51229 -3.6087,3.50896 -0.32716,0.20911 -0.4817,0.30115 -0.4817,0.28688 z m -3.52067,-0.76728 c -0.0132,-0.0214 0.0836,-0.0522 0.10306,-0.0327 0.007,0.007 -0.008,0.0123 -0.0318,0.0123 -0.0244,0 -0.0387,0.009 -0.0319,0.0198 0.007,0.0109 0.003,0.0198 -0.008,0.0198 -0.0109,0 -0.0252,-0.009 -0.0317,-0.0193 z m 3.32396,-1.01986 c 0.0202,-0.0185 0.2959,-0.15056 0.2959,-0.14168 0,0.0111 -0.26889,0.14928 -0.29045,0.14928 -0.008,0 -0.01,-0.003 -0.005,-0.008 z m 2.01178,-1.38098 c 0.0868,-0.0873 0.16223,-0.15869 0.16768,-0.15869 0.005,0 -0.0611,0.0714 -0.14784,0.15869 -0.0868,0.0873 -0.16223,0.1587 -0.16769,0.1587 -0.005,0 0.0611,-0.0714 0.14785,-0.1587 z m 4.92378,-1.06043 c 0.0622,-0.12501 0.11628,-0.22414 0.12012,-0.22029 0.009,0.009 -0.21046,0.44758 -0.22362,0.44758 -0.005,0 0.0413,-0.10228 0.1035,-0.22729 z m -2.22955,-0.34302 c 0.0691,-0.13911 0.15555,-0.32201 0.19209,-0.40646 0.0365,-0.0844 0.0697,-0.15032 0.0736,-0.14639 0.0164,0.0164 -0.35722,0.80577 -0.38144,0.80577 -0.005,0 0.0466,-0.11381 0.11575,-0.25292 z m -1.67839,0.006 c 0.0403,-0.0814 0.0765,-0.14485 0.0805,-0.14089 0.009,0.009 -0.13097,0.28896 -0.14422,0.28896 -0.005,0 0.0235,-0.0666 0.0638,-0.14807 z m 4.0345,0.0787 c 0,-0.0109 0.0259,-0.0689 0.0576,-0.12894 0.0317,-0.06 0.0576,-0.10018 0.0576,-0.0893 0,0.0109 -0.0259,0.0689 -0.0576,0.12894 -0.0317,0.06 -0.0576,0.10018 -0.0576,0.0893 z m 0.18409,-0.40666 c 0.0174,-0.0644 0.0773,-0.19955 0.085,-0.19184 0.005,0.004 -0.0146,0.0562 -0.0425,0.11489 -0.0279,0.0587 -0.047,0.0933 -0.0426,0.077 z m -13.84856,-0.1729 c 0.03,-0.005 0.0791,-0.005 0.1091,0 0.03,0.005 0.005,0.008 -0.0545,0.008 -0.06,0 -0.0846,-0.004 -0.0546,-0.008 z m 11.65908,-0.28569 c 0,-0.0233 0.17665,-0.50049 0.17753,-0.4796 0.001,0.0264 -0.15171,0.46273 -0.1676,0.47863 -0.005,0.005 -0.01,0.006 -0.01,0.001 z m 2.39299,-0.0572 c 0.007,-0.0273 0.0244,-0.0764 0.0393,-0.1091 0.0218,-0.0478 0.0247,-0.0497 0.0149,-0.01 -0.007,0.0273 -0.0244,0.0764 -0.0393,0.1091 -0.0218,0.0478 -0.0247,0.0497 -0.0149,0.01 z m 0.0897,-0.24795 c -6e-5,-0.0109 0.0119,-0.0511 0.0266,-0.0893 0.0147,-0.0382 0.027,-0.056 0.0274,-0.0397 4.2e-4,0.0164 -0.0116,0.0565 -0.0266,0.0893 -0.015,0.0327 -0.0273,0.0506 -0.0273,0.0397 z m -2.30117,-0.22813 c 0,-0.0163 0.012,-0.061 0.0267,-0.0992 0.0147,-0.0382 0.0267,-0.056 0.0267,-0.0397 0,0.0164 -0.012,0.061 -0.0267,0.0992 -0.0147,0.0382 -0.0267,0.056 -0.0267,0.0397 z m 2.38047,-0.0198 c 0,-0.0164 0.0165,-0.0744 0.0366,-0.12894 0.0201,-0.0546 0.0366,-0.0858 0.0366,-0.0694 0,0.0164 -0.0165,0.0744 -0.0366,0.12894 -0.0201,0.0545 -0.0366,0.0858 -0.0366,0.0694 z m -2.32347,-0.17027 c 0.001,-0.0358 0.11495,-0.45405 0.11671,-0.42843 0.002,0.0299 -0.0962,0.42564 -0.10889,0.43828 -0.005,0.005 -0.008,1.5e-4 -0.008,-0.01 z m 2.41213,-0.12729 c 0.007,-0.0382 0.0204,-0.0873 0.03,-0.1091 0.0119,-0.0272 0.0134,-0.0179 0.005,0.0298 -0.007,0.0382 -0.0204,0.0873 -0.03,0.1091 -0.0119,0.0272 -0.0134,0.0179 -0.005,-0.0298 z m 0.0476,-0.17026 c 0.001,-0.0357 0.0951,-0.37472 0.0969,-0.3488 0.002,0.03 -0.0765,0.34604 -0.0891,0.35872 -0.005,0.005 -0.008,7e-5 -0.008,-0.01 z m -2.33801,-0.1868 c -8.2e-4,-0.0164 0.0106,-0.0833 0.0254,-0.14877 0.0148,-0.0655 0.0269,-0.0967 0.027,-0.0694 1.5e-4,0.0556 -0.05,0.26473 -0.0524,0.2182 z m 2.44066,-0.22812 c 0,-0.0218 0.007,-0.062 0.0159,-0.0893 0.0126,-0.0393 0.0159,-0.0413 0.0159,-0.01 0,0.0218 -0.007,0.062 -0.0159,0.0893 -0.0126,0.0393 -0.0159,0.0413 -0.0159,0.01 z m -2.38088,-0.0794 c -6.2e-4,-0.0218 0.006,-0.0754 0.0152,-0.11902 0.0138,-0.0667 0.0164,-0.0699 0.0163,-0.0198 -7e-5,0.0695 -0.0297,0.19986 -0.0315,0.13885 z m 2.45987,-0.29755 c -6.2e-4,-0.0218 0.0158,-0.12894 0.0366,-0.23804 0.0216,-0.11376 0.0332,-0.15183 0.0272,-0.0893 -0.0125,0.12942 -0.0621,0.38431 -0.0637,0.32731 z m -12.39592,-0.13883 c 1.5e-4,-0.0545 0.004,-0.0745 0.009,-0.0443 0.005,0.0301 0.004,0.0748 -2.1e-4,0.0992 -0.005,0.0244 -0.008,-2.1e-4 -0.008,-0.0548 z m 10.00599,-0.0595 c 0.006,-0.0873 0.0185,-0.23456 0.0272,-0.3273 0.0136,-0.14522 0.0143,-0.13697 0.005,0.0595 -0.006,0.12547 -0.018,0.27276 -0.0272,0.3273 -0.0127,0.0757 -0.0139,0.0616 -0.005,-0.0595 z m -1.77372,-0.17853 c 1.5e-4,-0.0546 0.004,-0.0745 0.009,-0.0444 0.005,0.0302 0.004,0.0748 -2.1e-4,0.0992 -0.005,0.0244 -0.008,-2.1e-4 -0.008,-0.0548 z m -8.23227,-0.0992 c 1.5e-4,-0.0546 0.004,-0.0745 0.009,-0.0444 0.005,0.0301 0.004,0.0748 -2.1e-4,0.0992 -0.005,0.0244 -0.008,-2e-4 -0.008,-0.0548 z m 12.47537,-0.01 c -8.3e-4,-0.0273 0.0103,-0.13886 0.0249,-0.24796 0.0145,-0.1091 0.0267,-0.16266 0.0272,-0.11902 8.3e-4,0.0886 -0.0496,0.4451 -0.052,0.36698 z m -4.22057,-0.51576 c 0,-0.22366 0.003,-0.31516 0.006,-0.20333 0.004,0.11183 0.004,0.29483 0,0.40666 -0.004,0.11183 -0.006,0.0203 -0.006,-0.20333 z m 1.79021,-0.26284 c -0.007,-0.30821 -0.0252,-0.6675 -0.0409,-0.79843 -0.0157,-0.13092 -0.0335,-0.28713 -0.0395,-0.34714 -0.0108,-0.10765 -0.0107,-0.10793 0.008,-0.0207 0.0468,0.21848 0.0824,0.66913 0.0931,1.17622 0.006,0.30276 0.007,0.55047 0.002,0.55047 -0.005,0 -0.0154,-0.25217 -0.0222,-0.56039 z m -1.81247,-0.3521 c 0,-0.06 0.004,-0.0846 0.008,-0.0546 0.005,0.03 0.005,0.0791 0,0.1091 -0.005,0.03 -0.008,0.005 -0.008,-0.0546 z m -8.98263,-0.46121 -0.13832,-0.14381 0.14382,0.13832 c 0.13357,0.12848 0.15287,0.14931 0.13832,0.14931 -0.003,0 -0.0677,-0.0647 -0.14382,-0.14382 z m -5.28939,-0.64469 c 0.73457,-0.003 1.93073,-0.003 2.65814,0 0.72741,0.003 0.1264,0.005 -1.33557,0.005 -1.46198,0 -2.05713,-0.002 -1.32257,-0.005 z m 18.53519,-0.49864 c -0.014,-0.12424 -0.0309,-0.26706 -0.0375,-0.31739 -0.007,-0.0503 -0.007,-0.087 -0.001,-0.0816 0.0158,0.0147 0.0783,0.52646 0.0708,0.57947 -0.004,0.025 -0.0179,-0.0563 -0.032,-0.18049 z m -0.072,-0.51965 c -0.007,-0.0562 -0.01,-0.10615 -0.005,-0.11103 0.005,-0.005 0.0152,0.0369 0.0229,0.0928 0.008,0.0559 0.01,0.10591 0.005,0.11103 -0.005,0.005 -0.0154,-0.0367 -0.0229,-0.0928 z m -6.28068,-2.3738 -0.10842,-0.11407 0.11406,0.10843 c 0.10597,0.10073 0.12315,0.1197 0.10843,0.1197 -0.003,0 -0.0544,-0.0513 -0.11407,-0.11406 z m -5.04282,-2.04232 c 0.0246,-0.005 0.0647,-0.005 0.0893,0 0.0246,0.005 0.004,0.009 -0.0446,0.009 -0.0491,0 -0.0692,-0.004 -0.0446,-0.009 z m -0.2678,-0.02 c 0.03,-0.005 0.0791,-0.005 0.1091,0 0.03,0.005 0.005,0.008 -0.0545,0.008 -0.06,0 -0.0846,-0.004 -0.0546,-0.008 z m -0.35706,-0.0201 c 0.0409,-0.004 0.10786,-0.004 0.14877,0 0.0409,0.004 0.007,0.008 -0.0744,0.008 -0.0818,0 -0.1153,-0.004 -0.0744,-0.008 z m -11.92192,-0.0203 c 2.14659,-0.003 5.65919,-0.003 7.80578,0 2.14659,0.003 0.39029,0.005 -3.90289,0.005 -4.29317,0 -6.04948,-0.002 -3.90289,-0.005 z" id="SvgjsPath1450"></path><path style="fill:#bdc1c8;stroke-width:0.0749737" d="m 121.56536,152.95032 c 0,-1.30377 0.002,-1.83713 0.005,-1.18524 0.003,0.65188 0.003,1.71861 0,2.37049 -0.003,0.65189 -0.005,0.11853 -0.005,-1.18525 z m -0.005,-6.74829 c -0.002,-0.56397 0.002,-1.02953 0.0104,-1.03459 0.0135,-0.008 0.0133,0.74963 -6.2e-4,1.69299 -0.003,0.20184 -0.007,-0.0944 -0.01,-0.6584 z m 3.58539,-0.30865 -0.12836,-0.13389 0.13389,0.12836 c 0.0737,0.0706 0.1339,0.13086 0.1339,0.1339 0,0.0146 -0.0202,-0.004 -0.13943,-0.12837 z m -3.04933,-0.75337 c 0.0409,-0.004 0.10786,-0.004 0.14877,0 0.0409,0.004 0.007,0.008 -0.0744,0.008 -0.0818,0 -0.11531,-0.004 -0.0744,-0.008 z m 0.75462,-0.0201 c 0.0741,-0.004 0.19014,-0.004 0.25788,6e-5 0.0677,0.004 0.007,0.007 -0.13472,0.007 -0.14184,-3e-5 -0.19726,-0.003 -0.12316,-0.007 z m -25.079498,-1.46312 c -0.08128,-0.0818 -0.143319,-0.14877 -0.137865,-0.14877 0.0055,0 0.07642,0.0669 0.157703,0.14877 0.08128,0.0818 0.143319,0.14878 0.137863,0.14878 -0.0055,0 -0.07642,-0.067 -0.157701,-0.14878 z m 8.182058,-1.78035 -0.1184,-0.12398 0.12398,0.1184 c 0.0682,0.0651 0.12398,0.12091 0.12398,0.12398 0,0.0147 -0.0196,-0.003 -0.12956,-0.1184 z m 29.4781,-0.59014 c 0.10869,-0.10911 0.20209,-0.19837 0.20754,-0.19837 0.005,0 -0.079,0.0893 -0.1877,0.19837 -0.1087,0.1091 -0.20209,0.19837 -0.20755,0.19837 -0.005,0 0.079,-0.0893 0.18771,-0.19837 z m -12.54336,-1.8597 c 0.7165,-0.003 1.89481,-0.003 2.61846,0 0.72365,0.003 0.13742,0.005 -1.30273,0.005 -1.44015,0 -2.03223,-0.002 -1.31573,-0.005 z m -1.32773,-2.41892 c -0.003,-1.32222 0.002,-2.40818 0.0101,-2.41324 0.0135,-0.008 0.0134,1.67882 -2e-4,3.95438 -0.003,0.4746 -0.007,-0.21892 -0.01,-1.54114 z m -26.987975,1.7643 c -0.04911,-0.1391 -0.121314,-0.36003 -0.160445,-0.49096 -0.0671,-0.22447 -0.211271,-0.79683 -0.211271,-0.83871 0,-0.0106 0.08257,-0.0666 0.183491,-0.12452 0.100919,-0.0579 0.187954,-0.1114 0.193408,-0.11891 0.0055,-0.007 0.496417,-0.29334 1.091024,-0.63521 0.594607,-0.34187 1.085568,-0.6277 1.091024,-0.63519 0.0055,-0.007 0.478563,-0.28321 1.051349,-0.61269 0.572787,-0.3295 1.077138,-0.6236 1.12078,-0.65358 0.04364,-0.03 0.534602,-0.31611 1.091025,-0.63587 0.55642,-0.31975 1.04738,-0.60597 1.09102,-0.63603 0.0436,-0.0301 0.52568,-0.31067 1.07119,-0.62359 0.54551,-0.31292 1.03647,-0.59862 1.09102,-0.63488 0.0545,-0.0363 0.56783,-0.33561 1.14062,-0.66519 0.57279,-0.32959 1.04589,-0.60532 1.05135,-0.61272 0.0178,-0.0241 0.1587,-0.10003 0.15862,-0.0854 -4e-5,0.008 -0.10858,0.14364 -0.2412,0.30184 -0.66303,0.7909 -1.20218,1.6683 -1.51454,2.46469 -0.0417,0.10636 -0.0791,0.19017 -0.083,0.18624 -0.004,-0.004 0.002,-0.0319 0.0138,-0.0622 0.0115,-0.0303 0.0185,-0.0574 0.0154,-0.0603 -0.007,-0.007 -1.78068,1.01388 -1.82058,1.04747 -0.0164,0.0138 -0.51625,0.30503 -1.11086,0.64724 -0.59461,0.3422 -1.085572,0.6284 -1.091026,0.636 -0.0055,0.008 -0.496416,0.29339 -1.091024,0.63511 -0.594609,0.34171 -1.08557,0.62753 -1.091023,0.63515 -0.0055,0.008 -0.496417,0.29389 -1.091024,0.63615 -0.59461,0.34227 -1.090033,0.63044 -1.100943,0.64039 -0.0109,0.01 -0.184978,0.1138 -0.386818,0.23078 -0.337437,0.19557 -0.366679,0.21693 -0.363247,0.26526 0.0021,0.0289 8.26e-4,0.0526 -0.0026,0.0526 -0.0035,0 -0.04649,-0.11381 -0.09561,-0.25292 z m 34.408535,-1.77043 c 0,-0.0709 0.004,-0.0999 0.008,-0.0645 0.004,0.0355 0.004,0.0935 0,0.12894 -0.004,0.0355 -0.008,0.006 -0.008,-0.0645 z m 8.21149,-0.23804 c 0,-0.0491 0.004,-0.0692 0.009,-0.0446 0.005,0.0245 0.005,0.0647 0,0.0893 -0.005,0.0246 -0.009,0.004 -0.009,-0.0446 z m -33.88014,-0.44633 c 7e-5,-0.0764 0.004,-0.10518 0.008,-0.064 0.004,0.0412 0.004,0.10365 -1.5e-4,0.13886 -0.004,0.0352 -0.008,0.001 -0.008,-0.0748 z m 0.33221,-2.18198 c -0.002,-0.0291 0.10045,-0.33122 0.10946,-0.32221 0.004,0.004 -0.0183,0.0829 -0.0501,0.17483 -0.0318,0.0919 -0.0585,0.15825 -0.0593,0.14738 z m 31.74688,-2.65324 -0.17812,-0.18349 0.1835,0.17812 c 0.17042,0.16543 0.19252,0.18886 0.17811,0.18886 -0.003,0 -0.0855,-0.0826 -0.18349,-0.18349 z m -6.18335,-2.37 c 0.0357,-0.004 0.0892,-0.004 0.11902,2.1e-4 0.0298,0.005 6.2e-4,0.008 -0.0648,0.008 -0.0655,-1.1e-4 -0.0899,-0.004 -0.0542,-0.008 z M 113.1153,126.4034 c 0.0218,-0.015 0.27177,-0.16015 0.55543,-0.32247 0.28367,-0.16232 0.52022,-0.30137 0.52568,-0.30899 0.005,-0.008 0.47856,-0.28322 1.05135,-0.61244 0.57279,-0.32922 1.07714,-0.62326 1.12078,-0.65343 0.0436,-0.0302 0.54353,-0.3211 1.11086,-0.64652 0.56733,-0.32542 1.04937,-0.60661 1.07118,-0.62488 0.0218,-0.0183 0.50386,-0.29938 1.07119,-0.62471 0.56734,-0.32532 1.06722,-0.61612 1.11086,-0.64621 0.0436,-0.0301 0.54799,-0.32407 1.12078,-0.65331 0.57279,-0.32923 1.05482,-0.61002 1.07119,-0.62398 0.0164,-0.0139 0.25971,-0.15718 0.54078,-0.31828 l 0.51102,-0.29291 0.34196,0.0629 c 0.8093,0.14884 2.07735,0.4387 1.89915,0.43412 -0.0671,-0.002 -0.1579,0.0408 -0.28764,0.13464 -0.0327,0.0237 -0.51476,0.30437 -1.07118,0.62375 -0.55643,0.31938 -1.04739,0.60533 -1.09103,0.63544 -0.0436,0.0301 -0.52567,0.31077 -1.07118,0.62368 -0.54552,0.31292 -1.03648,0.59855 -1.09103,0.63473 -0.0546,0.0362 -0.56783,0.33542 -1.14061,0.66499 -0.57279,0.32956 -1.0459,0.60543 -1.05135,0.61302 -0.005,0.008 -0.39755,0.23651 -0.87133,0.5087 l -0.8614,0.4949 0.0878,0.0124 c 0.0863,0.0122 0.086,0.0123 -0.0164,0.008 -0.0573,-0.002 -0.10414,0.003 -0.10414,0.0124 0,0.009 -0.0303,0.0165 -0.0674,0.0165 -0.037,0 -0.30708,0.0315 -0.60006,0.07 -1.24702,0.16379 -2.29077,0.3723 -3.46854,0.69289 -0.17457,0.0475 -0.34417,0.0922 -0.3769,0.0993 -0.0552,0.0119 -0.0566,0.0109 -0.0199,-0.0145 z m 5.31158,-0.94126 c 0.0302,-0.005 0.0748,-0.004 0.0992,2e-4 0.0244,0.005 -2e-4,0.008 -0.0548,0.008 -0.0546,-1.4e-4 -0.0745,-0.004 -0.0444,-0.009 z m 0.29755,-0.0199 c 0.0302,-0.005 0.0748,-0.004 0.0992,2.1e-4 0.0244,0.005 -2e-4,0.008 -0.0548,0.008 -0.0546,-1.5e-4 -0.0745,-0.004 -0.0444,-0.009 z m 0.32739,-0.02 c 0.0357,-0.004 0.0892,-0.004 0.11902,2.1e-4 0.0298,0.005 6.2e-4,0.008 -0.0648,0.008 -0.0655,-1.5e-4 -0.0898,-0.004 -0.0542,-0.008 z m 0.4069,-0.0201 c 0.0521,-0.004 0.13249,-0.004 0.17853,1.5e-4 0.046,0.004 0.003,0.008 -0.0948,0.007 -0.0982,-6e-5 -0.13587,-0.003 -0.0837,-0.008 z m 2.42976,2.1e-4 c 0.0357,-0.004 0.0892,-0.004 0.11902,2e-4 0.0298,0.005 6.2e-4,0.008 -0.0648,0.008 -0.0655,-8e-5 -0.0899,-0.004 -0.0542,-0.008 z m -1.55636,-0.0203 c 0.15067,-0.003 0.39169,-0.003 0.5356,2e-5 0.14391,0.003 0.0206,0.006 -0.27394,0.006 -0.29458,-1e-5 -0.41232,-0.003 -0.26166,-0.006 z" id="SvgjsPath1449"></path><path style="fill:#babdc2;stroke-width:0.0749737" d="m 121.69958,147.2425 c 0.0627,-0.004 0.16539,-0.004 0.22812,0 0.0627,0.004 0.0114,0.007 -0.11406,0.007 -0.12547,0 -0.1768,-0.003 -0.11406,-0.007 z m -24.26604,-3.94774 -0.108425,-0.11406 0.114061,0.10843 c 0.06273,0.0596 0.114061,0.11096 0.114061,0.11406 0,0.0147 -0.01896,-0.002 -0.119697,-0.10843 z m -1.554702,-1.95392 c -0.488049,-0.74211 -0.831686,-1.39411 -1.125719,-2.13587 -0.05372,-0.13553 -0.09388,-0.25632 -0.08923,-0.26843 0.0046,-0.0121 0.176848,-0.1189 0.382672,-0.2373 0.205821,-0.1184 0.378683,-0.22126 0.384139,-0.22857 0.0055,-0.007 0.496415,-0.29315 1.091024,-0.63518 0.594607,-0.34204 1.085568,-0.62812 1.091024,-0.63574 0.0055,-0.008 0.496414,-0.29344 1.091023,-0.63515 0.594608,-0.34172 1.085568,-0.62752 1.091024,-0.63511 0.0055,-0.008 0.496415,-0.2938 1.091025,-0.636 0.59461,-0.34221 1.0945,-0.63347 1.11086,-0.64724 0.0401,-0.0338 1.81358,-1.05404 1.82064,-1.04741 0.003,0.003 -0.0264,0.0935 -0.0655,0.20133 -0.2987,0.82456 -0.4629,1.85093 -0.4376,2.7352 0.003,0.12002 0.003,0.16242 -0.002,0.0942 -0.005,-0.0682 -0.0126,-0.12398 -0.0181,-0.12398 -0.0153,0 -1.18714,0.67762 -1.19836,0.69294 -0.005,0.007 -0.49642,0.29328 -1.09102,0.63519 -0.59461,0.34191 -1.085574,0.62783 -1.091028,0.63538 -0.0055,0.008 -0.496417,0.2934 -1.091024,0.63524 -0.594609,0.34184 -1.08557,0.62758 -1.091024,0.63497 -0.0055,0.007 -0.465173,0.27505 -1.021595,0.5948 -0.556422,0.31975 -1.019915,0.58868 -1.029984,0.59761 -0.02694,0.0239 0.0038,0.0806 0.235377,0.43401 0.11434,0.17449 0.203483,0.31726 0.198098,0.31726 -0.0054,0 -0.111057,-0.15398 -0.234828,-0.34218 z m 9.737122,0.19837 -0.0784,-0.0843 0.0843,0.0784 c 0.0784,0.0729 0.0934,0.0902 0.0784,0.0902 -0.003,0 -0.0412,-0.0379 -0.0843,-0.0843 z m -2.28481,-4.63686 c 0,-0.0491 0.004,-0.0692 0.009,-0.0446 0.005,0.0246 0.005,0.0647 0,0.0893 -0.005,0.0246 -0.009,0.004 -0.009,-0.0446 z m 14.34805,-11.39328 c 0.021,-0.014 0.41752,-0.2431 0.88121,-0.50917 0.46368,-0.26606 0.84752,-0.48993 0.85298,-0.49747 0.005,-0.008 0.47856,-0.28337 1.05135,-0.61293 0.57278,-0.32957 1.08606,-0.62881 1.14061,-0.66499 0.0545,-0.0362 0.54551,-0.32181 1.09103,-0.63473 0.54551,-0.31291 1.02754,-0.59357 1.07118,-0.62368 0.0436,-0.0301 0.5346,-0.31606 1.09103,-0.63544 0.55642,-0.31938 1.03845,-0.60007 1.07118,-0.62375 0.1256,-0.0909 0.22044,-0.13645 0.27772,-0.13343 0.18916,0.01 1.57484,0.41103 2.45964,0.71189 0.48904,0.16629 0.62052,0.21792 0.49294,0.19357 -0.0541,-0.0103 -0.11509,0.0183 -0.44633,0.20946 -0.21104,0.12177 -0.42835,0.25094 -0.4829,0.28704 -0.0546,0.0361 -0.54551,0.32167 -1.09102,0.63462 -0.54551,0.31294 -1.02755,0.5936 -1.07119,0.62369 -0.0436,0.0301 -0.5346,0.31599 -1.09102,0.63532 -0.55642,0.31934 -1.03846,0.60023 -1.07119,0.6242 -0.0327,0.024 -0.39268,0.23489 -0.79989,0.46871 -0.70199,0.40308 -0.73696,0.42583 -0.67445,0.43889 0.0363,0.008 -0.10814,0.01 -0.32089,0.005 -1.26113,-0.0279 -1.78336,-0.0304 -2.35066,-0.0111 -0.7294,0.0248 -1.72889,0.0884 -2.05158,0.13062 -0.0606,0.008 -0.0638,0.006 -0.0298,-0.0165 z m 6.52973,0.0128 c 0.0246,-0.005 0.0647,-0.005 0.0893,0 0.0246,0.005 0.004,0.009 -0.0446,0.009 -0.0491,0 -0.0692,-0.004 -0.0446,-0.009 z m -0.24768,-0.0201 c 0.0301,-0.005 0.0748,-0.004 0.0992,2.1e-4 0.0244,0.005 -2.1e-4,0.008 -0.0548,0.008 -0.0546,-1.5e-4 -0.0745,-0.004 -0.0443,-0.009 z m -0.27799,-0.0198 c 0.03,-0.005 0.0791,-0.005 0.1091,0 0.03,0.005 0.005,0.008 -0.0546,0.008 -0.06,0 -0.0846,-0.004 -0.0545,-0.008 z m -0.30792,-0.0199 c 0.0352,-0.004 0.0977,-0.004 0.13886,-1.5e-4 0.0412,0.004 0.0123,0.008 -0.064,0.008 -0.0764,8e-5 -0.11005,-0.003 -0.0748,-0.008 z m -0.33722,-0.0199 c 0.0352,-0.004 0.0977,-0.004 0.13886,-1.4e-4 0.0412,0.004 0.0123,0.008 -0.064,0.008 -0.0764,7e-5 -0.11005,-0.003 -0.0748,-0.008 z m -0.38638,-0.0201 c 0.0518,-0.004 0.13663,-0.004 0.18845,0 0.0518,0.004 0.009,0.007 -0.0942,0.007 -0.10365,0 -0.14605,-0.003 -0.0942,-0.007 z m 6.79394,-3.83841 c -0.11737,-0.0445 -0.20998,-0.0844 -0.2058,-0.0886 0.008,-0.008 0.42909,0.1461 0.44603,0.16303 0.0206,0.0206 -0.0353,0.003 -0.24023,-0.0745 z" id="SvgjsPath1448"></path><path style="fill:#b5b6ba;stroke-width:0.0749737" d="m 122.10623,147.24264 c 0.0464,-0.004 0.12224,-0.004 0.16861,0 0.0464,0.004 0.008,0.008 -0.0843,0.008 -0.0927,0 -0.13068,-0.003 -0.0843,-0.008 z m -23.452984,-2.78742 -0.07841,-0.0843 0.08431,0.0784 c 0.04637,0.0431 0.08431,0.0811 0.08431,0.0843 0,0.015 -0.01729,-1e-5 -0.0902,-0.0784 z m -0.485067,-0.43852 c -0.885215,-0.83283 -1.608308,-1.67996 -2.213267,-2.59294 -0.266069,-0.40153 -0.302722,-0.46718 -0.274721,-0.49201 0.01006,-0.009 0.47356,-0.27786 1.029982,-0.59761 0.556423,-0.31975 1.016141,-0.58741 1.021595,-0.5948 0.0055,-0.007 0.496416,-0.29313 1.091024,-0.63497 0.594607,-0.34184 1.08557,-0.6277 1.091024,-0.63524 0.0055,-0.008 0.496414,-0.29347 1.091024,-0.63538 0.59461,-0.34191 1.08557,-0.62775 1.09102,-0.63519 0.0141,-0.0192 1.19279,-0.69736 1.19843,-0.68951 0.003,0.004 0.0149,0.13592 0.0275,0.29412 0.0945,1.18781 0.5425,2.38956 1.30783,3.5085 0.0923,0.13494 0.15879,0.23977 0.14776,0.23296 -0.0357,-0.0221 -0.40846,-0.5901 -0.55797,-0.85025 -0.0799,-0.1391 -0.14977,-0.25291 -0.15515,-0.25291 -0.0157,0 -0.50941,0.28363 -0.52035,0.29892 -0.005,0.008 -0.47856,0.28345 -1.05135,0.61293 -0.57279,0.32949 -1.08607,0.62877 -1.14062,0.66507 -0.0545,0.0363 -0.54551,0.32212 -1.09102,0.63514 -0.545511,0.31302 -1.036473,0.59883 -1.091023,0.63512 -0.05455,0.0363 -0.451783,0.26849 -0.882738,0.51599 -0.430954,0.2475 -0.791634,0.45751 -0.801511,0.46669 -0.01031,0.01 0.0479,0.0844 0.136482,0.1754 0.178558,0.18348 0.683825,0.6812 0.84356,0.83096 0.06001,0.0563 0.10464,0.10243 0.09918,0.10261 -0.0055,1.5e-4 -0.183985,-0.16344 -0.396735,-0.3636 z m 39.782691,-0.44918 c 0.0426,-0.0436 0.0819,-0.0794 0.0874,-0.0794 0.005,0 -0.025,0.0357 -0.0676,0.0794 -0.0426,0.0436 -0.082,0.0794 -0.0874,0.0794 -0.005,0 0.025,-0.0357 0.0676,-0.0794 z m -32.11577,-1.78531 c -0.13058,-0.13092 -0.23296,-0.23804 -0.2275,-0.23804 0.005,0 0.11675,0.10712 0.24734,0.23804 0.13058,0.13092 0.23296,0.23804 0.2275,0.23804 -0.005,0 -0.11676,-0.10712 -0.24734,-0.23804 z m -0.81621,-0.91746 c -0.066,-0.0745 -0.16968,-0.21324 -0.15927,-0.21324 0.005,0 0.0554,0.058 0.1111,0.12894 0.10009,0.12736 0.125,0.17096 0.0482,0.0843 z m 34.0196,-4.68644 c 7e-5,-0.0764 0.004,-0.10518 0.008,-0.064 0.004,0.0411 0.004,0.10364 -1.5e-4,0.13885 -0.004,0.0352 -0.008,0.001 -0.008,-0.0748 z m -1.46452,-9.57125 c -0.16338,-0.16365 -0.29259,-0.29755 -0.28713,-0.29755 0.005,0 0.14359,0.1339 0.30697,0.29755 0.16338,0.16365 0.29259,0.29755 0.28714,0.29755 -0.005,0 -0.1436,-0.1339 -0.30698,-0.29755 z m -9.19435,-0.47608 c -0.0393,-0.0126 -0.0413,-0.0159 -0.01,-0.0159 0.0218,0 0.062,0.007 0.0893,0.0159 0.0393,0.0126 0.0413,0.0159 0.01,0.0159 -0.0218,0 -0.062,-0.007 -0.0893,-0.0159 z m -0.32731,-0.069 c -0.0546,-0.014 -0.0813,-0.0257 -0.0595,-0.0259 0.0218,-2e-4 0.0843,0.011 0.13886,0.025 0.0545,0.014 0.0813,0.0257 0.0595,0.0259 -0.0218,2.1e-4 -0.0843,-0.011 -0.13886,-0.025 z m -0.45625,-0.0897 c -0.0873,-0.0194 -0.14084,-0.0359 -0.11902,-0.0366 0.0218,-6.2e-4 0.11555,0.0153 0.20829,0.0355 0.0927,0.0202 0.1463,0.0367 0.11902,0.0366 -0.0273,-8e-5 -0.121,-0.016 -0.20829,-0.0355 z m -0.45624,-0.0818 c -1.03391,-0.19411 -2.8021,-0.3895 -4.10622,-0.45375 -0.25093,-0.0124 -0.50377,-0.0286 -0.56185,-0.036 l -0.1056,-0.0136 0.74038,-0.42512 c 0.40721,-0.23382 0.76716,-0.44474 0.79989,-0.46871 0.0327,-0.024 0.51477,-0.30486 1.07119,-0.62419 0.55642,-0.31934 1.04738,-0.60523 1.09102,-0.63533 0.0436,-0.0301 0.52568,-0.31075 1.07119,-0.62369 0.54551,-0.31294 1.03647,-0.59852 1.09102,-0.63462 0.0546,-0.0361 0.27214,-0.16543 0.48352,-0.2874 0.31284,-0.18052 0.39402,-0.2194 0.43641,-0.20905 0.24967,0.061 1.48812,0.56236 2.23412,0.90451 0.57933,0.26571 1.89442,0.94853 1.89442,0.98363 0,0.006 -0.0692,-0.0279 -0.15374,-0.0744 -0.39535,-0.21748 -0.63315,-0.33923 -0.68139,-0.34888 -0.04,-0.008 -0.10448,0.0192 -0.26836,0.11341 -0.11861,0.0682 -0.25137,0.14857 -0.29501,0.17865 -0.0436,0.0301 -0.52567,0.31075 -1.07118,0.62369 -0.54552,0.31294 -1.03648,0.5987 -1.09103,0.63502 -0.0546,0.0363 -0.56783,0.33571 -1.14061,0.66531 -0.57279,0.3296 -1.0459,0.6055 -1.05135,0.6131 -0.005,0.008 -0.0479,0.0349 -0.0942,0.0606 -0.0951,0.0528 -0.10433,0.0726 -0.0397,0.085 0.0409,0.008 0.0405,0.009 -0.005,0.009 -0.0273,1.5e-4 -0.13886,-0.0165 -0.24796,-0.037 z m 6.26347,-2.43951 c -0.0573,-0.0334 -0.10415,-0.0653 -0.10415,-0.0709 0,-0.011 0.17642,0.0871 0.2073,0.11526 0.0336,0.0307 0.003,0.0175 -0.10315,-0.0444 z" id="SvgjsPath1447"></path><path style="fill:#acadb1;stroke-width:0.0749737" d="m 122.40378,147.24281 c 0.0355,-0.004 0.0935,-0.004 0.12894,0 0.0355,0.004 0.006,0.008 -0.0645,0.008 -0.0709,0 -0.0999,-0.004 -0.0645,-0.008 z m -21.71086,-1.2332 c -0.50093,-0.3386 -0.905798,-0.63651 -1.364289,-1.00388 -0.507068,-0.40629 -0.704583,-0.57942 -1.160452,-1.01717 -0.486822,-0.46748 -0.704672,-0.69666 -0.682107,-0.71761 0.0097,-0.009 0.370173,-0.21881 0.801127,-0.46631 0.430955,-0.2475 0.828185,-0.47969 0.882738,-0.51599 0.05455,-0.0363 0.545512,-0.3221 1.091023,-0.63512 0.54551,-0.31302 1.03647,-0.59884 1.09102,-0.63514 0.0546,-0.0363 0.56783,-0.33558 1.14062,-0.66507 0.57279,-0.32948 1.0459,-0.6053 1.05135,-0.61293 0.0109,-0.0153 0.50466,-0.29892 0.52035,-0.29892 0.005,0 0.0738,0.11114 0.15197,0.24697 0.58281,1.01234 1.43426,2.00375 2.44085,2.84206 0.26122,0.21756 0.36113,0.31058 0.19957,0.18584 -0.15284,-0.11803 -0.5799,-0.48265 -0.73396,-0.62666 -0.0709,-0.0663 -0.14404,-0.13201 -0.16249,-0.14604 -0.0289,-0.0219 -0.0732,-0.003 -0.31739,0.13829 -0.15611,0.0901 -0.31061,0.18323 -0.34334,0.20697 -0.0327,0.0237 -0.51477,0.30409 -1.07119,0.62299 -0.55642,0.3189 -1.04738,0.60444 -1.09102,0.63455 -0.0436,0.0301 -0.53461,0.31637 -1.09103,0.63616 -0.55642,0.31978 -1.03821,0.60009 -1.07063,0.62291 -0.0324,0.0228 -0.27749,0.16743 -0.54458,0.32136 -0.26709,0.15393 -0.48862,0.28887 -0.492284,0.29986 -0.008,0.0239 0.360334,0.29665 0.799084,0.59191 0.31634,0.21288 0.36345,0.24669 0.34382,0.24669 -0.006,0 -0.18069,-0.11508 -0.38876,-0.25572 z m 37.03975,-2.22389 c 0.0758,-0.0764 0.14225,-0.13885 0.14771,-0.13885 0.005,0 -0.0521,0.0625 -0.12788,0.13885 -0.0758,0.0764 -0.14225,0.13886 -0.14771,0.13886 -0.005,0 0.0521,-0.0625 0.12788,-0.13886 z m -30.51395,-0.78458 c -0.0791,-0.0602 -0.14382,-0.11377 -0.14382,-0.11912 0,-0.005 0.067,0.0407 0.14878,0.10225 0.12923,0.0973 0.16431,0.12816 0.14381,0.12663 -0.003,-2e-4 -0.0697,-0.0496 -0.14877,-0.10976 z m 29.06586,-0.54448 c 0.0868,-0.0873 0.16223,-0.1587 0.16768,-0.1587 0.005,0 -0.0611,0.0714 -0.14784,0.1587 -0.0868,0.0873 -0.16223,0.15869 -0.16768,0.15869 -0.005,0 0.0611,-0.0714 0.14784,-0.15869 z m 2.75354,-6.04031 c 8e-5,-0.0655 0.004,-0.0898 0.008,-0.0542 0.004,0.0357 0.004,0.0892 -2e-4,0.11902 -0.005,0.0298 -0.008,6.2e-4 -0.008,-0.0648 z m 0,-0.47608 c 8e-5,-0.0655 0.004,-0.0898 0.008,-0.0542 0.004,0.0357 0.004,0.0892 -2e-4,0.11903 -0.005,0.0298 -0.008,6.2e-4 -0.008,-0.0648 z m -2.5852,-5.87665 -0.26752,-0.27275 0.27275,0.26752 c 0.15002,0.14713 0.27276,0.26987 0.27276,0.27275 0,0.0142 -0.0295,-0.0141 -0.27799,-0.26752 z m -2.94053,-2.12885 c -0.0409,-0.0216 -0.0744,-0.0437 -0.0744,-0.0491 0,-0.005 0.0357,0.008 0.0794,0.0306 0.0436,0.0223 0.0794,0.0448 0.0794,0.05 0,0.013 -1.6e-4,0.0129 -0.0843,-0.0315 z m -0.74884,-0.37555 c -0.06,-0.0317 -0.10018,-0.0576 -0.0893,-0.0576 0.0109,0 0.0689,0.0259 0.12894,0.0576 0.06,0.0317 0.10018,0.0576 0.0893,0.0576 -0.0109,0 -0.0689,-0.0259 -0.12894,-0.0576 z m -0.2182,-0.0992 c -0.0382,-0.0209 -0.0605,-0.038 -0.0496,-0.038 0.0109,0 0.0511,0.0171 0.0893,0.038 0.0382,0.0209 0.0605,0.038 0.0496,0.038 -0.0109,0 -0.0511,-0.0171 -0.0893,-0.038 z M 131.98,127.2188 c -1.0024,-0.43004 -2.67256,-0.92201 -4.10533,-1.20927 -0.28961,-0.0581 -0.52656,-0.11087 -0.52656,-0.11735 0,-0.006 0.0379,-0.0328 0.0843,-0.0586 0.0464,-0.0258 0.0888,-0.053 0.0942,-0.0606 0.005,-0.008 0.47856,-0.28349 1.05135,-0.61309 0.57278,-0.32961 1.08606,-0.629 1.14061,-0.66531 0.0545,-0.0363 0.54551,-0.32208 1.09103,-0.63502 0.54551,-0.31294 1.02754,-0.5936 1.07118,-0.62369 0.14991,-0.10334 0.50378,-0.29861 0.54116,-0.29861 0.11341,0 1.45806,0.77097 2.15665,1.23654 0.68262,0.45493 1.57383,1.12328 1.89441,1.42069 0.0491,0.0455 -0.0152,-0.003 -0.14282,-0.10703 -0.32465,-0.26557 -0.87422,-0.67827 -0.92442,-0.69421 -0.0321,-0.0102 -0.24118,0.10167 -0.8908,0.47654 -0.46687,0.26941 -0.85333,0.4958 -0.85879,0.50308 -0.005,0.007 -0.48106,0.28418 -1.05691,0.61532 -0.57584,0.33115 -1.04403,0.61097 -1.04041,0.62182 0.004,0.0108 0.13335,0.0704 0.28829,0.13245 0.257,0.10284 0.339,0.14173 0.28987,0.13749 -0.01,-8.2e-4 -0.0807,-0.0284 -0.15704,-0.0611 z m 5.90087,-0.28939 -0.12837,-0.1339 0.1339,0.12836 c 0.0736,0.0706 0.1339,0.13086 0.1339,0.1339 0,0.0146 -0.0202,-0.004 -0.13943,-0.12836 z m -0.6342,-0.62982 c -0.0813,-0.0818 -0.14332,-0.14878 -0.13787,-0.14878 0.005,0 0.0764,0.0669 0.1577,0.14878 0.0813,0.0818 0.14332,0.14877 0.13787,0.14877 -0.005,0 -0.0764,-0.0669 -0.1577,-0.14877 z m -0.27772,-0.25788 c -0.0482,-0.0491 -0.0831,-0.0893 -0.0777,-0.0893 0.005,0 0.0493,0.0402 0.0975,0.0893 0.0482,0.0491 0.0831,0.0893 0.0777,0.0893 -0.005,0 -0.0493,-0.0402 -0.0975,-0.0893 z m -0.18938,-0.17357 -0.0784,-0.0843 0.0843,0.0784 c 0.0784,0.0729 0.0934,0.0902 0.0784,0.0902 -0.003,0 -0.0412,-0.0379 -0.0843,-0.0843 z" id="SvgjsPath1446"></path><path style="fill:#a4a5aa;stroke-width:0.0749737" d="m 103.25436,147.49744 c -0.59385,-0.30396 -0.94684,-0.49929 -1.50548,-0.83306 -0.70127,-0.41898 -1.826577,-1.18824 -1.81018,-1.23742 0.0037,-0.0111 0.22527,-0.14616 0.49236,-0.30009 0.26709,-0.15393 0.51215,-0.29855 0.54458,-0.32136 0.0324,-0.0228 0.51421,-0.30313 1.07063,-0.62291 0.55642,-0.31979 1.04738,-0.60606 1.09103,-0.63616 0.0436,-0.0301 0.5346,-0.31565 1.09102,-0.63455 0.55642,-0.3189 1.03845,-0.59925 1.07119,-0.62299 0.0327,-0.0237 0.18723,-0.11688 0.34334,-0.20697 0.3207,-0.18508 0.27532,-0.18494 0.46996,-0.001 0.64252,0.60577 1.74766,1.42067 2.60854,1.92345 0.13638,0.0797 0.25689,0.15349 0.2678,0.16409 0.0284,0.0276 -0.0507,-0.014 -0.27955,-0.14697 -0.11012,-0.064 -0.21072,-0.11633 -0.22357,-0.11633 -0.024,0 -1.57187,0.88686 -1.58966,0.91082 -0.005,0.007 -0.49609,0.29318 -1.09029,0.63518 -0.5942,0.34201 -1.09084,0.63172 -1.10364,0.64381 -0.0128,0.0121 -0.4523,0.26747 -0.97667,0.56751 -0.89894,0.51435 -0.95108,0.54721 -0.91298,0.57526 0.0222,0.0164 0.25161,0.13895 0.50976,0.2724 0.25815,0.13346 0.46043,0.24263 0.44952,0.2426 -0.0109,-2e-5 -0.24388,-0.11472 -0.51771,-0.25488 z m 19.37755,-0.25448 c 0.03,-0.005 0.0791,-0.005 0.1091,0 0.03,0.005 0.005,0.008 -0.0546,0.008 -0.06,0 -0.0846,-0.004 -0.0545,-0.008 z m -12.38312,-2.40589 c -0.0382,-0.0209 -0.0605,-0.038 -0.0496,-0.038 0.0109,0 0.0511,0.0171 0.0893,0.038 0.0382,0.0209 0.0605,0.038 0.0496,0.038 -0.0109,0 -0.0511,-0.0171 -0.0893,-0.038 z m -0.69925,-0.34839 c -0.0736,-0.0378 -0.1339,-0.0732 -0.1339,-0.0786 0,-0.005 0.0625,0.0216 0.13886,0.06 0.0764,0.0385 0.13886,0.0743 0.13886,0.0796 0,0.0133 0.006,0.0156 -0.14382,-0.061 z m -0.34714,-0.18833 c -0.10092,-0.0548 -0.1835,-0.10425 -0.1835,-0.10983 0,-0.0111 0.33555,0.16612 0.36599,0.19331 0.036,0.0321 5e-5,0.0157 -0.18249,-0.0835 z m 27.2306,-14.2764 -0.20793,-0.21325 0.21325,0.20793 c 0.11728,0.11436 0.21324,0.21033 0.21324,0.21325 0,0.0143 -0.0254,-0.01 -0.21856,-0.20793 z m -0.33687,-0.31243 c -0.0482,-0.0491 -0.0831,-0.0893 -0.0777,-0.0893 0.005,0 0.0493,0.0402 0.0975,0.0893 0.0482,0.0491 0.0831,0.0893 0.0777,0.0893 -0.005,0 -0.0493,-0.0402 -0.0975,-0.0893 z m -0.47608,-0.40876 c -0.26356,-0.22778 -0.89308,-0.6719 -1.34186,-0.94666 -0.7225,-0.44235 -1.62308,-0.89085 -2.4557,-1.22294 -0.14118,-0.0563 -0.25972,-0.1115 -0.26343,-0.12264 -0.004,-0.0111 0.46439,-0.29119 1.04023,-0.62234 0.57585,-0.33114 1.05146,-0.60804 1.05691,-0.61532 0.005,-0.007 0.39192,-0.23367 0.85879,-0.50308 0.64962,-0.37487 0.85871,-0.48672 0.8908,-0.47654 0.0579,0.0184 0.6327,0.45467 0.98449,0.74728 0.77815,0.64726 1.41507,1.27483 2.11417,2.08317 0.0637,0.0737 0.11104,0.1339 0.10522,0.1339 -0.006,0 -0.066,-0.0647 -0.1337,-0.14381 -0.21392,-0.24989 -0.67674,-0.7457 -0.70687,-0.75726 -0.0249,-0.01 -0.33585,0.15112 -0.36374,0.18795 -0.005,0.007 -0.49642,0.29306 -1.09102,0.63525 -0.59461,0.34218 -1.09186,0.63254 -1.105,0.64524 -0.0131,0.0127 -0.12249,0.0785 -0.243,0.14625 -0.12051,0.0677 -0.21911,0.13048 -0.21911,0.13944 0,0.009 0.0602,0.0589 0.1339,0.11099 0.3321,0.2349 0.85047,0.64104 0.81827,0.6411 -0.005,1e-5 -0.0412,-0.027 -0.0794,-0.06 z m 3.0747,-1.42615 c -0.0457,-0.0546 -0.0786,-0.0992 -0.0731,-0.0992 0.005,0 0.0473,0.0446 0.093,0.0992 0.0457,0.0546 0.0786,0.0992 0.0731,0.0992 -0.005,0 -0.0473,-0.0446 -0.093,-0.0992 z" id="SvgjsPath1445"></path><path style="fill:#9c9ca2;stroke-width:0.0749737" d="m 106.52319,148.89007 c -0.047,-0.0166 -0.082,-0.0338 -0.0777,-0.038 0.009,-0.009 0.19305,0.0514 0.19305,0.0634 0,0.0124 -0.0226,0.007 -0.1153,-0.0253 z m -0.29685,-0.1095 c -0.0903,-0.0336 -0.16073,-0.0645 -0.15651,-0.0687 0.008,-0.008 0.33203,0.1072 0.34829,0.12346 0.019,0.019 -0.0345,0.004 -0.19178,-0.0548 z m -0.7483,-0.29135 c -0.5595,-0.2251 -0.66319,-0.26938 -1.20013,-0.51248 -0.36692,-0.16612 -1.39503,-0.6836 -1.4613,-0.73551 -0.0421,-0.0329 -0.0226,-0.0453 0.90979,-0.57917 0.52402,-0.30003 0.96323,-0.55541 0.97604,-0.5675 0.0128,-0.0121 0.50944,-0.30181 1.10364,-0.64381 0.5942,-0.342 1.08483,-0.62784 1.09029,-0.63518 0.0169,-0.0228 1.56502,-0.91083 1.58786,-0.91083 0.0119,0 0.18834,0.0954 0.39218,0.212 0.85139,0.48701 1.94713,1.00739 2.87514,1.36545 0.0792,0.0306 0.14094,0.0585 0.13727,0.0622 -0.004,0.004 -0.10182,-0.0292 -0.21812,-0.073 l -0.21144,-0.0797 -0.59036,0.34043 c -0.3247,0.18724 -0.59482,0.34645 -0.60028,0.3538 -0.005,0.007 -0.49628,0.29319 -1.09072,0.63521 -0.59444,0.34201 -1.09096,0.63155 -1.10339,0.64341 -0.0124,0.0118 -0.5048,0.29828 -1.09417,0.63649 -0.58937,0.33822 -1.06738,0.62189 -1.06226,0.63039 0.005,0.008 0.0376,0.0278 0.0723,0.043 0.0346,0.0152 0.054,0.0282 0.0431,0.0289 -0.0109,8.2e-4 -0.26086,-0.0956 -0.55543,-0.21414 z m 16.26121,-1.22696 c 0.0846,-0.004 0.22292,-0.004 0.30747,0 0.0846,0.004 0.0154,0.007 -0.15373,0.007 -0.16911,0 -0.23829,-0.003 -0.15374,-0.007 z m -9.74111,-1.6651 c -0.0471,-0.0166 -0.082,-0.0338 -0.0778,-0.038 0.009,-0.009 0.19306,0.0514 0.19306,0.0634 0,0.0124 -0.0226,0.007 -0.11531,-0.0253 z m 25.47495,-14.36317 c -0.59779,-0.84754 -1.44773,-1.68278 -2.45529,-2.4128 -0.14882,-0.10782 -0.27057,-0.20296 -0.27057,-0.21143 0,-0.008 0.0986,-0.0708 0.21911,-0.13855 0.12051,-0.0677 0.22986,-0.13355 0.243,-0.14625 0.0131,-0.0127 0.51039,-0.30306 1.105,-0.64524 0.5946,-0.34219 1.08557,-0.62805 1.09102,-0.63525 0.0279,-0.0368 0.33885,-0.1975 0.36374,-0.18795 0.0568,0.0218 0.68691,0.72211 0.99814,1.10936 0.33262,0.41386 0.82396,1.1124 1.01856,1.44809 0.0809,0.13955 0.009,0.0464 -0.12657,-0.16475 -0.0724,-0.11243 -0.13822,-0.20068 -0.14633,-0.19611 -0.34037,0.19184 -0.883,0.50764 -0.92725,0.53963 -0.0327,0.0237 -0.40765,0.24244 -0.83315,0.48618 -0.4255,0.24375 -0.77741,0.44608 -0.78204,0.44964 -0.009,0.007 0.0265,0.0556 0.26066,0.35557 0.17229,0.22077 0.36036,0.48376 0.34595,0.48376 -0.005,0 -0.052,-0.0602 -0.10398,-0.1339 z m 2.8128,-0.88844 c -0.0458,-0.0923 -0.0789,-0.16787 -0.0737,-0.16787 0.0132,0 0.17289,0.3198 0.16408,0.32862 -0.004,0.004 -0.0446,-0.0684 -0.0904,-0.16075 z m -0.20256,-0.38607 c -0.0223,-0.0436 -0.036,-0.0794 -0.0306,-0.0794 0.005,0 0.0281,0.0357 0.0504,0.0794 0.0223,0.0436 0.036,0.0793 0.0306,0.0793 -0.005,0 -0.0281,-0.0357 -0.0504,-0.0793 z m -0.14478,-0.25292 c -0.005,-0.008 -0.0333,-0.0595 -0.0639,-0.11406 -0.0306,-0.0546 -0.0465,-0.0903 -0.0352,-0.0794 0.0287,0.0278 0.131,0.20828 0.11806,0.20828 -0.006,0 -0.0143,-0.007 -0.0189,-0.0149 z" id="SvgjsPath1444"></path><path style="fill:#6997cd;stroke-width:0.0749737" d="m 130.35763,155.12162 c -0.0622,-0.12501 -0.1088,-0.22729 -0.10349,-0.22729 0.0131,0 0.23239,0.43881 0.22362,0.44758 -0.004,0.004 -0.0579,-0.0953 -0.12013,-0.22029 z m -16.72698,-2.19113 c 0,-1.3256 0.002,-1.86788 0.005,-1.20509 0.003,0.6628 0.003,1.74738 0,2.41017 -0.003,0.6628 -0.005,0.12051 -0.005,-1.20508 z m 7.91002,0.026 c -0.003,-1.31131 0.002,-2.38834 0.0101,-2.3934 0.0135,-0.008 0.0134,1.63731 -2.1e-4,3.91471 -0.003,0.47459 -0.007,-0.20999 -0.01,-1.52131 z m 17.63105,1.25625 c -1.70289,-2.77452 -3.51864,-5.68991 -4.45746,-7.157 -0.20007,-0.31265 -0.36377,-0.57513 -0.36377,-0.5833 0,-0.0183 0.0451,0.0511 0.64453,0.99305 0.81023,1.27308 2.16183,3.44182 3.6099,5.79235 1.05797,1.71729 1.26426,2.05567 1.2572,2.06215 -0.004,0.003 -0.31448,-0.49477 -0.6904,-1.10725 z m -9.0542,0.44794 c -0.094,-0.1874 -0.26324,-0.51247 -0.91373,-1.75495 -0.0843,-0.16092 -0.14886,-0.29259 -0.14357,-0.29259 0.01,0 0.56302,1.04876 0.96529,1.82994 0.1222,0.2373 0.21702,0.43145 0.21072,0.43145 -0.006,0 -0.0597,-0.0962 -0.11871,-0.21385 z m -1.46117,-2.78646 c -0.40505,-0.76221 -1.22565,-2.28003 -1.28185,-2.37096 -0.0275,-0.0444 -0.0279,-0.0488 -0.002,-0.0243 0.0535,0.0512 1.70049,3.11438 1.67451,3.11438 -0.005,0 -0.18016,-0.32358 -0.39033,-0.71908 z m -7.11573,-5.65187 c -0.003,-0.56371 8.2e-4,-1.03905 0.007,-1.05631 0.01,-0.026 0.0449,-0.0307 0.20333,-0.0276 l 0.19128,0.004 -0.18844,0.0111 -0.18845,0.0111 -0.0102,1.04144 -0.0102,1.04143 z m 4.36356,0.68001 c -0.0495,-0.1119 -0.37554,-0.58974 -0.52256,-0.76593 -0.46863,-0.56161 -0.99079,-0.868 -1.65373,-0.97036 -0.0982,-0.0152 -0.14869,-0.0284 -0.11222,-0.0295 0.0971,-0.003 0.43657,0.0701 0.60286,0.12953 0.60356,0.21557 1.11346,0.6773 1.591,1.44067 0.0734,0.11732 0.13044,0.22227 0.12679,0.23323 -0.004,0.011 -0.0181,-0.006 -0.0321,-0.0377 z m -12.27327,-9.28584 5e-5,-8.50007 7.72643,-5e-5 7.72643,-5e-5 -7.71651,0.01 -7.71651,0.01 -0.01,8.49015 -0.01,8.49015 z m 8.51594,7.50337 c 0.0905,-0.004 0.23335,-0.004 0.31739,5e-5 0.084,0.004 0.01,0.007 -0.1646,0.007 -0.17456,-2e-5 -0.24332,-0.003 -0.15279,-0.007 z m 1.18882,4.2e-4 c 0.0352,-0.004 0.0977,-0.004 0.13886,-1.5e-4 0.0412,0.004 0.0123,0.008 -0.064,0.008 -0.0764,7e-5 -0.11005,-0.003 -0.0748,-0.008 z m -0.50449,-0.0203 c 0.085,-0.004 0.21895,-0.004 0.29755,5e-5 0.0786,0.004 0.009,0.007 -0.15464,0.007 -0.16365,-3e-5 -0.22796,-0.003 -0.14291,-0.007 z m 10.10077,-0.37608 c -0.0762,-0.0513 -0.22791,-0.14039 -0.33701,-0.19795 -0.22472,-0.11855 -0.24244,-0.14304 -0.0243,-0.0336 0.18953,0.0951 0.54676,0.32482 0.50513,0.32482 -0.003,0 -0.0676,-0.042 -0.14382,-0.0933 z m -0.59083,-0.31592 c -0.007,-0.007 -0.14894,-0.0599 -0.31574,-0.1179 -0.16679,-0.058 -0.2932,-0.10593 -0.28091,-0.10655 0.0123,-6.2e-4 0.14082,0.0395 0.28563,0.0891 0.25242,0.0865 0.39063,0.14538 0.34498,0.14707 -0.0118,4.1e-4 -0.0271,-0.005 -0.034,-0.0117 z m -0.97197,-0.30928 c -0.085,-0.0221 -0.15079,-0.044 -0.14612,-0.0487 0.009,-0.009 0.33413,0.07 0.34866,0.0845 0.0156,0.0156 -0.0483,0.004 -0.20254,-0.0358 z m -0.41653,-0.10912 c -0.10684,-0.0276 -0.19047,-0.0539 -0.18586,-0.0585 0.009,-0.009 0.41351,0.0897 0.42796,0.10419 0.0164,0.0164 -0.051,0.004 -0.2421,-0.0456 z m -0.34136,-0.0956 c -0.0782,-0.0271 -0.0784,-0.0273 -0.01,-0.0157 0.0809,0.0137 0.16365,0.0439 0.11902,0.0435 -0.0164,-1.5e-4 -0.0655,-0.0126 -0.10911,-0.0277 z m -0.27772,-0.0783 c -0.0764,-0.0252 -0.12993,-0.0467 -0.11902,-0.0478 0.0109,-0.001 0.0868,0.0194 0.16861,0.0456 0.0818,0.0261 0.13539,0.0476 0.11903,0.0478 -0.0164,1.5e-4 -0.0923,-0.0204 -0.16862,-0.0456 z m -0.25292,-0.073 c -0.0852,-0.0311 -0.0663,-0.0703 0.0456,-0.0943 0.0551,-0.0118 0.11535,-0.0205 0.1339,-0.0192 0.0186,0.001 -0.0146,0.0124 -0.0737,0.0249 -0.12679,0.0268 -0.14713,0.0578 -0.0568,0.0868 0.0358,0.0115 0.0517,0.0211 0.0353,0.0213 -0.0164,2.1e-4 -0.0543,-0.009 -0.0843,-0.0195 z m 0.33227,-0.14673 c 0.0655,-0.0148 0.13687,-0.0263 0.15869,-0.0257 0.0218,6.2e-4 -0.0139,0.0133 -0.0793,0.028 -0.0655,0.0148 -0.13688,0.0263 -0.1587,0.0257 -0.0218,-6.2e-4 0.0139,-0.0133 0.0794,-0.028 z m 0.29755,-0.0588 c 0.0546,-0.014 0.11704,-0.0253 0.13886,-0.025 0.0218,2e-4 -0.005,0.0119 -0.0595,0.0259 -0.0546,0.014 -0.11704,0.0253 -0.13886,0.025 -0.0218,-2.1e-4 0.005,-0.0119 0.0595,-0.0259 z m 0.27772,-0.0605 c 0.0546,-0.0152 0.11257,-0.027 0.12894,-0.0262 0.0164,8.3e-4 -0.0149,0.0138 -0.0694,0.029 -0.0546,0.0152 -0.11258,0.027 -0.12894,0.0262 -0.0164,-8.3e-4 0.0149,-0.0138 0.0694,-0.029 z m 0.4083,-0.0953 c 0.0159,-0.0143 0.46012,-0.13253 0.46805,-0.1246 0.004,0.004 -0.0928,0.0359 -0.21596,0.07 -0.2123,0.0588 -0.27094,0.0715 -0.25209,0.0546 z m 0.90092,-0.27781 c 0.5525,-0.19119 0.85561,-0.31789 1.30923,-0.54728 1.31826,-0.66662 2.22117,-1.51401 2.8,-2.62784 0.0797,-0.15339 0.14512,-0.27086 0.14535,-0.26105 0.001,0.0427 -0.29232,0.57654 -0.42617,0.77563 -0.22425,0.33355 -0.38651,0.52864 -0.70252,0.84466 -0.4074,0.4074 -0.7907,0.70492 -1.30362,1.0119 -0.28985,0.17347 -0.90328,0.47554 -1.24202,0.61161 -0.26639,0.10701 -0.93781,0.33952 -0.975,0.33763 -0.012,-6.2e-4 0.16564,-0.066 0.39475,-0.14526 z m 4.25662,-3.46646 c -8.2e-4,-0.007 0.0132,-0.047 0.0314,-0.0893 0.0182,-0.0422 0.0712,-0.18393 0.11796,-0.31485 0.0467,-0.13093 0.0854,-0.22775 0.086,-0.21517 0.002,0.0538 -0.2295,0.66418 -0.23536,0.61929 z m -14.99589,-0.20292 c -0.0164,-0.0197 -0.021,-0.6745 -0.0173,-2.44489 l 0.005,-2.41796 2.69517,-0.005 c 1.48233,-0.003 2.73531,0.002 2.78439,0.01 0.0491,0.008 -1.15928,0.015 -2.68525,0.015 h -2.77447 v 2.42009 2.42008 l 2.64821,0.01 2.64822,0.01 -2.64083,0.005 c -2.20417,0.004 -2.64452,4.1e-4 -2.66317,-0.0221 z m 5.31556,-1.5e-4 c 0.005,-0.004 0.0708,-0.0121 0.14713,-0.018 0.0842,-0.007 0.11544,-0.005 0.0793,0.005 -0.0603,0.0159 -0.24167,0.0264 -0.22647,0.0132 z m 0.4546,-0.0901 c 0.24079,-0.0802 0.34,-0.12708 0.52733,-0.24919 0.43308,-0.28229 0.79957,-0.75806 0.99196,-1.28772 0.0361,-0.0994 0.0661,-0.17019 0.0667,-0.1572 0.002,0.0405 -0.1,0.30715 -0.1725,0.45247 -0.24621,0.49315 -0.72466,0.97747 -1.14817,1.16228 -0.13692,0.0597 -0.36569,0.13717 -0.40265,0.13627 -0.0172,-4.1e-4 0.0446,-0.026 0.13737,-0.0569 z m 9.46382,-0.36882 c -6.2e-4,-0.0109 0.0164,-0.0734 0.0378,-0.13886 0.0214,-0.0655 0.0335,-0.0881 0.027,-0.0503 -0.0131,0.0753 -0.0629,0.22097 -0.0648,0.18916 z m 0.0892,-0.31739 c 0.007,-0.0327 0.0427,-0.19341 0.0797,-0.35706 0.037,-0.16366 0.0683,-0.31541 0.0697,-0.33723 0.002,-0.0309 0.004,-0.0324 0.0112,-0.007 0.009,0.0351 -0.1208,0.64234 -0.15351,0.71647 -0.0164,0.0372 -0.0175,0.0348 -0.007,-0.0155 z m -7.93305,-1.20009 c 0.007,-0.0491 0.0196,-0.13836 0.0284,-0.19837 0.0151,-0.10279 0.0155,-0.10107 0.007,0.0298 -0.005,0.0764 -0.0177,0.16563 -0.0284,0.19837 -0.0164,0.0503 -0.0175,0.0457 -0.007,-0.0298 z m 8.17331,-0.0694 c 0.006,-0.0873 0.0143,-0.16241 0.0184,-0.16696 0.0134,-0.0147 0.005,0.14466 -0.0124,0.23639 -0.0127,0.0671 -0.0143,0.0499 -0.006,-0.0694 z m 0.0319,-0.28763 c 0,-0.06 0.004,-0.0845 0.008,-0.0545 0.005,0.03 0.005,0.0791 0,0.1091 -0.005,0.03 -0.008,0.005 -0.008,-0.0546 z m -8.15236,-0.0893 c 7e-5,-0.0764 0.004,-0.10518 0.008,-0.064 0.004,0.0412 0.004,0.10364 -1.5e-4,0.13885 -0.004,0.0352 -0.008,0.001 -0.008,-0.0748 z m 8.17318,-0.18845 c 0,-0.0927 0.003,-0.13067 0.008,-0.0843 0.004,0.0464 0.004,0.12224 0,0.16861 -0.004,0.0464 -0.008,0.008 -0.008,-0.0843 z m -8.19385,-0.0496 c 1.5e-4,-0.0546 0.004,-0.0745 0.009,-0.0444 0.005,0.0302 0.004,0.0748 -2.1e-4,0.0992 -0.005,0.0244 -0.008,-2.1e-4 -0.008,-0.0548 z m 8.21479,-0.45624 c 2e-5,-0.17457 0.003,-0.24333 0.007,-0.1528 0.004,0.0905 0.004,0.23335 -5e-5,0.31739 -0.004,0.084 -0.007,0.01 -0.007,-0.16459 z m -8.27693,0.12588 c -0.013,-0.0561 -0.0199,-0.10568 -0.0155,-0.11009 0.004,-0.004 0.019,0.0376 0.0323,0.0933 0.0134,0.0557 0.0204,0.10527 0.0156,0.11009 -0.005,0.005 -0.0194,-0.0372 -0.0323,-0.0933 z m -0.0698,-0.23951 c -0.16431,-0.46801 -0.50253,-0.9291 -0.89531,-1.22058 -0.17686,-0.13124 -0.44873,-0.26618 -0.66454,-0.32983 -0.0927,-0.0274 -0.15345,-0.0502 -0.13492,-0.0508 0.12748,-0.004 0.55726,0.18725 0.78821,0.35074 0.27898,0.19748 0.62527,0.60278 0.78596,0.91988 0.0674,0.13294 0.17031,0.3962 0.16323,0.41743 -0.003,0.01 -0.0224,-0.0293 -0.0426,-0.0868 z m 8.32581,-0.39221 c 0,-0.0927 0.003,-0.13068 0.008,-0.0843 0.004,0.0464 0.004,0.12224 0,0.16861 -0.004,0.0464 -0.008,0.008 -0.008,-0.0843 z m -0.0208,-0.27772 c 0,-0.06 0.004,-0.0846 0.008,-0.0546 0.005,0.03 0.005,0.0791 0,0.1091 -0.005,0.03 -0.008,0.005 -0.008,-0.0546 z m -0.0345,-0.25912 c -0.008,-0.0778 -0.01,-0.14558 -0.005,-0.15062 0.005,-0.005 0.0155,0.0544 0.0233,0.13203 0.008,0.0777 0.01,0.14544 0.005,0.15062 -0.005,0.005 -0.0157,-0.0542 -0.0234,-0.13203 z m -0.0285,-0.21696 c -0.002,-0.0273 -0.0293,-0.17903 -0.0617,-0.33723 -0.0609,-0.29764 -0.0661,-0.33029 -0.0507,-0.31484 0.019,0.019 0.13146,0.61907 0.12355,0.65942 -0.007,0.0369 -0.009,0.036 -0.0112,-0.007 z m -0.1913,-0.8877 c -0.0198,-0.0736 -0.0657,-0.22248 -0.10198,-0.33076 -0.0363,-0.10828 -0.0622,-0.20064 -0.0576,-0.20525 0.009,-0.009 0.17565,0.49862 0.19874,0.60544 0.0251,0.11623 -0.002,0.0675 -0.0391,-0.0694 z m -0.23407,-0.69298 c -0.0289,-0.0729 -0.0494,-0.13577 -0.0455,-0.13969 0.004,-0.004 0.031,0.0524 0.0601,0.12507 0.0291,0.0727 0.0496,0.13558 0.0454,0.13969 -0.004,0.004 -0.0311,-0.0522 -0.0601,-0.12507 z m -0.20658,-0.45939 c -0.29988,-0.60792 -0.62576,-1.06139 -1.10705,-1.54047 -0.62051,-0.61766 -1.14257,-1.01528 -1.81431,-1.38186 -0.13638,-0.0744 -0.24014,-0.1354 -0.23058,-0.13549 0.0292,-2e-4 0.38563,0.19656 0.63197,0.34898 0.44954,0.27815 0.88783,0.62982 1.37765,1.10538 0.40369,0.39193 0.70714,0.78427 0.99757,1.28978 0.11802,0.20541 0.30547,0.58771 0.29373,0.59906 -0.003,0.003 -0.0701,-0.12546 -0.14898,-0.28538 z m -3.29826,-3.10758 c -0.0491,-0.0263 -0.0803,-0.0478 -0.0694,-0.0478 0.0109,0 0.06,0.0215 0.1091,0.0478 0.0491,0.0263 0.0803,0.0478 0.0694,0.0478 -0.0109,0 -0.06,-0.0215 -0.1091,-0.0478 z m -0.33191,-0.1348 c -0.11163,-0.0444 -0.19954,-0.0842 -0.19536,-0.0884 0.009,-0.009 0.42808,0.15283 0.42808,0.16521 0,0.0143 -0.0233,0.007 -0.23272,-0.0768 z m -0.51514,-0.17934 c -0.14403,-0.0447 -0.2583,-0.0848 -0.25395,-0.0892 0.009,-0.009 0.483,0.13156 0.52573,0.15656 0.0502,0.0294 2e-4,0.017 -0.27178,-0.0674 z m -0.59112,-0.16169 c -0.0982,-0.0249 -0.16805,-0.0463 -0.15524,-0.0476 0.0313,-0.003 0.38336,0.0785 0.38336,0.0888 0,0.0136 -0.0419,0.006 -0.22812,-0.0412 z m -0.43641,-0.0895 c -0.0531,-0.0135 -0.0542,-0.0151 -0.01,-0.0151 0.0273,0 0.0764,0.007 0.1091,0.0151 0.0531,0.0135 0.0542,0.0151 0.01,0.0151 -0.0273,0 -0.0764,-0.007 -0.1091,-0.0151 z m -0.93233,-0.12917 c -0.1148,-0.014 -0.16076,-0.0245 -0.1091,-0.0251 0.0491,-6.2e-4 0.17407,0.0104 0.27771,0.0244 0.10365,0.0139 0.15275,0.0252 0.10911,0.0251 -0.0437,-1.3e-4 -0.16862,-0.0111 -0.27772,-0.0243 z m -0.37159,-0.0439 c 0.0357,-0.004 0.0892,-0.004 0.11903,2e-4 0.0298,0.005 6.1e-4,0.008 -0.0648,0.008 -0.0655,-1.2e-4 -0.0898,-0.004 -0.0542,-0.008 z m -0.29738,-0.02 c 0.0467,-0.004 0.11807,-0.004 0.1587,1.3e-4 0.0406,0.004 0.002,0.008 -0.0848,0.008 -0.0873,-8e-5 -0.12052,-0.004 -0.0739,-0.008 z m -0.45677,-0.02 c 0.0682,-0.004 0.17977,-0.004 0.24796,0 0.0682,0.004 0.0124,0.007 -0.12398,0.007 -0.13638,0 -0.19217,-0.003 -0.12398,-0.007 z" id="SvgjsPath1443"></path><path style="fill:#95959a;stroke-width:0.0749737" d="m 109.59417,149.79383 c -0.88427,-0.22615 -1.45421,-0.38765 -2.17213,-0.6155 -0.41871,-0.13288 -1.46157,-0.51001 -1.49132,-0.53931 -0.0178,-0.0176 0.23103,-0.16895 1.04889,-0.63798 0.58977,-0.33821 1.08247,-0.62464 1.0949,-0.63649 0.0124,-0.0119 0.50895,-0.3014 1.10339,-0.64341 0.59444,-0.34202 1.08527,-0.62787 1.09072,-0.63521 0.005,-0.007 0.2754,-0.16645 0.59987,-0.35355 l 0.58994,-0.3402 0.3523,0.13136 c 0.63831,0.23799 1.687,0.58913 1.76072,0.58956 0.0131,8e-5 0.0164,0.24531 0.01,0.71575 l -0.01,0.71563 -0.90257,0.5195 c -0.49642,0.28572 -0.94275,0.54639 -0.99184,0.57925 -0.0491,0.0329 -0.51633,0.30518 -1.03828,0.60515 l -0.94901,0.54539 0.0861,0.0222 c 0.11684,0.0301 0.13266,0.0368 0.0861,0.0365 -0.0218,-1.5e-4 -0.14233,-0.0265 -0.2678,-0.0586 z m 12.66084,-2.53128 c 0.0409,-0.004 0.10786,-0.004 0.14877,0 0.0409,0.004 0.007,0.008 -0.0744,0.008 -0.0818,0 -0.11531,-0.004 -0.0744,-0.008 z m 0.7042,-0.0194 c 0.0246,-0.005 0.0647,-0.005 0.0893,0 0.0246,0.005 0.004,0.009 -0.0446,0.009 -0.0491,0 -0.0692,-0.004 -0.0446,-0.009 z m 14.76354,-3.46736 c 0.12511,-0.12547 0.23194,-0.22812 0.23739,-0.22812 0.005,0 -0.0924,0.10265 -0.21755,0.22812 -0.12512,0.12547 -0.23194,0.22812 -0.2374,0.22812 -0.005,0 0.0925,-0.10265 0.21756,-0.22812 z m -1.42825,-1.30923 c 0.0923,-0.0927 0.1722,-0.16861 0.17765,-0.16861 0.005,0 -0.0656,0.0759 -0.15781,0.16861 -0.0923,0.0927 -0.1722,0.16861 -0.17766,0.16861 -0.005,0 0.0656,-0.0759 0.15782,-0.16861 z m 2.76555,-6.29818 c 0,-0.20184 0.003,-0.28441 0.007,-0.18349 0.004,0.10092 0.004,0.26606 0,0.36698 -0.004,0.10092 -0.007,0.0183 -0.007,-0.18349 z m 2.41185,-1.44809 c 0,-0.0436 0.007,-0.0794 0.0154,-0.0794 0.008,0 0.012,0.0357 0.008,0.0794 -0.004,0.0436 -0.0111,0.0794 -0.0154,0.0794 -0.004,0 -0.008,-0.0357 -0.008,-0.0794 z m -2.96534,-1.59171 c -0.2848,-0.76862 -0.78331,-1.63228 -1.35805,-2.35278 -0.0988,-0.12381 -0.17917,-0.23092 -0.17869,-0.23805 4.1e-4,-0.007 0.3368,-0.20486 0.74739,-0.43943 0.41059,-0.23457 0.79077,-0.45571 0.84486,-0.49141 0.0729,-0.0481 0.64961,-0.38404 0.95083,-0.55381 0.0173,-0.01 0.21775,0.2951 0.42596,0.6478 0.22042,0.37339 0.59396,1.13536 0.754,1.53804 0.15502,0.39005 0.30827,0.82452 0.29538,0.83742 -0.004,0.004 -0.036,-0.075 -0.07,-0.1766 -0.034,-0.10161 -0.0692,-0.19635 -0.0782,-0.21053 -0.0123,-0.0194 -0.11248,0.0297 -0.40138,0.19652 -0.21177,0.12227 -0.3895,0.22845 -0.39496,0.23595 -0.005,0.007 -0.34912,0.20819 -0.76371,0.44596 -0.41459,0.23778 -0.761,0.43873 -0.7698,0.44657 -0.009,0.008 0.007,0.0795 0.0347,0.15929 0.0773,0.22114 0.0473,0.18593 -0.0383,-0.0449 z" id="SvgjsPath1442"></path><path style="fill:#8c8c92;stroke-width:0.0749737" d="m 113.48218,150.48897 c -0.06,-0.009 -0.28317,-0.0396 -0.49591,-0.0678 -0.99307,-0.13132 -2.51821,-0.41879 -3.22033,-0.60699 l -0.0762,-0.0204 0.94901,-0.54539 c 0.52195,-0.29997 0.98918,-0.57229 1.03828,-0.60515 0.0491,-0.0329 0.49542,-0.29353 0.99184,-0.57926 l 0.90257,-0.51951 0.005,-0.7033 c 0.004,-0.49275 0.012,-0.70947 0.0277,-0.72388 0.0135,-0.0124 0.0182,-0.0127 0.0118,-8.2e-4 -0.006,0.0109 -0.0138,1.00398 -0.0178,2.20684 -0.004,1.20285 -0.007,2.18592 -0.007,2.18461 0,-0.001 -0.0491,-0.01 -0.10911,-0.019 z m 8.26793,-3.20691 c 0.0905,-0.004 0.23335,-0.004 0.31739,5e-5 0.084,0.004 0.01,0.007 -0.16459,0.007 -0.17457,-2e-5 -0.24333,-0.003 -0.1528,-0.007 z m 0.83298,-0.0198 c 0.0686,-0.004 0.17574,-0.004 0.23804,7e-5 0.0623,0.004 0.006,0.007 -0.12475,0.007 -0.13093,-4e-5 -0.1819,-0.003 -0.11329,-0.007 z m 0.56457,-0.0196 c 0.0409,-0.004 0.10787,-0.004 0.14878,0 0.0409,0.004 0.007,0.008 -0.0744,0.008 -0.0818,0 -0.1153,-0.004 -0.0744,-0.008 z m 0.38638,-0.0197 c 0.0352,-0.004 0.0977,-0.004 0.13886,-1.5e-4 0.0412,0.004 0.0123,0.008 -0.064,0.008 -0.0764,8e-5 -0.11005,-0.003 -0.0748,-0.008 z m 0.32775,-0.0197 c 0.03,-0.005 0.0791,-0.005 0.1091,0 0.03,0.005 0.005,0.008 -0.0545,0.008 -0.06,0 -0.0846,-0.004 -0.0546,-0.008 z m 0.28763,-0.0196 c 0.0245,-0.005 0.0647,-0.005 0.0893,0 0.0245,0.005 0.004,0.009 -0.0446,0.009 -0.0491,0 -0.0692,-0.004 -0.0446,-0.009 z m 0.23804,-0.0198 c 0.0245,-0.005 0.0647,-0.005 0.0893,0 0.0245,0.005 0.004,0.009 -0.0446,0.009 -0.0491,0 -0.0692,-0.004 -0.0446,-0.009 z m 12.96831,-3.04087 c 0.0426,-0.0436 0.0819,-0.0794 0.0874,-0.0794 0.005,0 -0.025,0.0357 -0.0676,0.0794 -0.0426,0.0436 -0.082,0.0793 -0.0874,0.0793 -0.005,0 0.0249,-0.0357 0.0676,-0.0793 z m 0.71412,-0.71412 c 0.0426,-0.0437 0.082,-0.0794 0.0874,-0.0794 0.005,0 -0.0249,0.0357 -0.0676,0.0794 -0.0426,0.0436 -0.0819,0.0793 -0.0874,0.0793 -0.005,0 0.0249,-0.0357 0.0676,-0.0793 z m -2.04319,-0.67446 c 0.0537,-0.0545 0.10216,-0.0992 0.10761,-0.0992 0.005,0 -0.034,0.0446 -0.0878,0.0992 -0.0537,0.0546 -0.10216,0.0992 -0.10761,0.0992 -0.005,0 0.034,-0.0446 0.0878,-0.0992 z m 0.52485,-0.52071 c 0.0822,-0.0876 0.10001,-0.10333 0.10001,-0.0884 0,0.003 -0.0424,0.0456 -0.0942,0.0942 l -0.0942,0.0884 z m 2.48583,-5.29147 c 0,-0.0491 0.004,-0.0692 0.009,-0.0446 0.005,0.0246 0.005,0.0647 0,0.0893 -0.005,0.0245 -0.009,0.004 -0.009,-0.0446 z m 0.031,-0.53559 c 0.0231,-1.04696 -0.13419,-2.06527 -0.47322,-3.06389 -0.0551,-0.16231 -0.0932,-0.30131 -0.0846,-0.30891 0.009,-0.008 0.35477,-0.20835 0.76936,-0.44612 0.41459,-0.23777 0.75826,-0.43846 0.76371,-0.44596 0.005,-0.007 0.18319,-0.11368 0.39496,-0.23595 0.28758,-0.16604 0.38907,-0.21578 0.40098,-0.19652 0.0207,0.0335 0.13562,0.36832 0.21317,0.62123 0.19904,0.64909 0.37203,1.59683 0.41362,2.26615 0.0108,0.1739 0.0177,0.21283 0.027,0.1536 0.008,-0.0476 0.0137,0.0213 0.0154,0.17195 0.003,0.25105 -0.0129,0.37329 -0.0359,0.28037 -0.0101,-0.0404 -0.0594,-0.0156 -0.68528,0.34514 -0.37095,0.21379 -0.67891,0.39463 -0.68437,0.40185 -0.005,0.007 -0.23938,0.14518 -0.51982,0.30656 l -0.5099,0.29342 -0.007,0.11203 c -0.004,0.0616 -0.003,-0.0531 0.001,-0.25495 z m 2.38958,-0.25788 c 0,-0.06 0.004,-0.0846 0.008,-0.0546 0.005,0.03 0.005,0.0791 0,0.1091 -0.005,0.03 -0.008,0.005 -0.008,-0.0546 z m 0.0215,-0.40665 c 4e-5,-0.13093 0.003,-0.1819 0.007,-0.11329 0.004,0.0686 0.004,0.17574 -7e-5,0.23804 -0.004,0.0623 -0.007,0.006 -0.007,-0.12475 z m 0.0389,-0.3769 c 7e-5,-0.0873 0.004,-0.12052 0.008,-0.0739 0.004,0.0467 0.004,0.11807 -1.5e-4,0.1587 -0.004,0.0406 -0.008,0.002 -0.008,-0.0848 z" id="SvgjsPath1441"></path><path style="fill:#838389;stroke-width:0.0749737" d="m 113.59018,150.48491 c -0.005,-0.014 -0.007,-0.1814 -0.004,-0.37194 l 0.006,-0.34645 0.01,0.37196 c 0.005,0.20458 0.007,0.37195 0.004,0.37194 -0.003,-1e-5 -0.01,-0.0115 -0.0154,-0.0255 z m 0.0205,-2.59297 c 0,-0.97646 0.002,-1.37593 0.005,-0.88769 0.003,0.48823 0.003,1.28715 0,1.77539 -0.003,0.48823 -0.005,0.0888 -0.005,-0.8877 z m 7.99717,1.2741 c -0.006,-0.0952 -0.0171,-0.557 -0.024,-1.02614 l -0.0124,-0.85298 0.55252,-0.005 c 0.97386,-0.008 2.03087,-0.07 2.98093,-0.17449 0.2446,-0.0269 0.44917,-0.0445 0.45459,-0.039 0.005,0.005 -0.006,0.01 -0.0243,0.01 -0.0341,0 -0.34743,0.17411 -0.49812,0.27675 -0.0436,0.0297 -0.5346,0.31567 -1.09103,0.63543 -0.55642,0.31975 -1.04738,0.60598 -1.09102,0.63605 -0.0667,0.0459 -1.06078,0.62095 -1.19309,0.6901 -0.0416,0.0217 -0.0428,0.0184 -0.0541,-0.15092 z m 16.10496,-5.40015 c 0.15245,-0.15275 0.28165,-0.27772 0.2871,-0.27772 0.005,0 -0.11481,0.12497 -0.26726,0.27772 -0.15246,0.15274 -0.28165,0.27771 -0.28711,0.27771 -0.005,0 0.11482,-0.12497 0.26727,-0.27771 z m -1.39849,-1.29931 c 0.15791,-0.1582 0.29158,-0.28764 0.29703,-0.28764 0.005,0 -0.11928,0.12944 -0.2772,0.28764 -0.15791,0.15819 -0.29158,0.28763 -0.29704,0.28763 -0.005,0 0.11929,-0.12944 0.27721,-0.28763 z m 1.29857,-1.57207 c 0.0306,-0.0464 0.0594,-0.0843 0.064,-0.0843 0.0143,0 -0.0616,0.12072 -0.0914,0.14534 -0.0155,0.0128 -0.003,-0.0147 0.0274,-0.061 z m 0.56456,-0.97392 c 0.51092,-1.02034 0.81597,-2.11603 0.88558,-3.18086 l 0.0139,-0.21222 0.50816,-0.29242 c 0.27949,-0.16083 0.51262,-0.29832 0.51808,-0.30555 0.005,-0.007 0.31342,-0.18808 0.68437,-0.40192 0.60247,-0.34729 0.67517,-0.38431 0.68121,-0.34687 0.005,0.0331 0.0105,0.036 0.0245,0.0139 0.0107,-0.0169 0.0163,0.13767 0.014,0.38856 -0.003,0.38113 -0.005,0.39463 -0.0146,0.15869 l -0.0108,-0.25788 -0.0143,0.3769 c -0.016,0.42157 -0.0701,0.92986 -0.14403,1.35251 -0.0643,0.36792 -0.17725,0.86093 -0.1849,0.80732 -0.005,-0.0381 -0.0402,-0.0224 -0.36698,0.16474 -0.19854,0.11373 -0.40561,0.23663 -0.46016,0.27311 -0.0546,0.0365 -0.48303,0.28667 -0.95217,0.55601 -0.46914,0.26933 -0.88647,0.5114 -0.9274,0.53793 -0.0623,0.0404 -0.10034,0.1 -0.2332,0.36531 -0.0873,0.1744 -0.16324,0.31709 -0.1687,0.31709 -0.005,0 0.0609,-0.14146 0.14749,-0.31436 z" id="SvgjsPath1440"></path><path style="fill:#807f85;stroke-width:0.0749737" d="m 121.59855,149.83966 c 0.002,-0.37845 0.008,-0.64554 0.0149,-0.59356 l 0.0118,0.0945 0.59548,-0.34249 c 0.32752,-0.18836 0.62209,-0.3613 0.65462,-0.38429 0.0325,-0.023 0.51438,-0.30339 1.0708,-0.62311 0.55643,-0.31971 1.04739,-0.60562 1.09103,-0.63535 0.0436,-0.0297 0.16569,-0.10405 0.27123,-0.16515 0.1736,-0.10052 0.21092,-0.11397 0.39164,-0.14111 0.10987,-0.0165 0.2078,-0.03 0.21763,-0.03 0.0216,0 0.28301,0.46231 0.48786,0.86282 0.082,0.16038 0.14915,0.29434 0.14915,0.29768 0,0.003 -0.16737,0.10219 -0.37194,0.21967 -0.20456,0.11747 -0.3764,0.2198 -0.38185,0.22739 -0.005,0.008 -0.49642,0.29344 -1.09103,0.6352 -0.59461,0.34177 -1.08557,0.62729 -1.09102,0.63449 -0.005,0.007 -0.1782,0.10992 -0.38388,0.22828 -0.2649,0.15244 -0.36387,0.21874 -0.33935,0.22734 0.0341,0.012 -0.19871,0.045 -0.84388,0.11967 -0.18002,0.0208 -0.35632,0.042 -0.39178,0.047 l -0.0645,0.009 z m -0.0149,-1.42204 c 3e-5,-0.17457 0.003,-0.24332 0.007,-0.1528 0.004,0.0905 0.004,0.23336 -4e-5,0.31739 -0.004,0.084 -0.007,0.01 -0.007,-0.16459 z m 12.63793,-4.24938 c 0.0313,-0.0316 0.32731,-0.22616 0.32731,-0.21511 0,0.005 -0.0647,0.0532 -0.14382,0.1062 -0.16361,0.10953 -0.21329,0.13902 -0.18349,0.10891 z m 3.1433,-0.0701 c 0.0486,-0.0518 0.091,-0.0942 0.0942,-0.0942 0.0149,0 -8.3e-4,0.0178 -0.0884,0.10001 l -0.0942,0.0884 z m 0.6852,-0.68933 c 0.0426,-0.0436 0.0819,-0.0793 0.0874,-0.0793 0.005,0 -0.0249,0.0357 -0.0676,0.0793 -0.0426,0.0437 -0.0819,0.0794 -0.0874,0.0794 -0.005,0 0.0249,-0.0357 0.0676,-0.0794 z m -2.12254,-0.55543 c 0.0537,-0.0545 0.10216,-0.0992 0.10761,-0.0992 0.005,0 -0.034,0.0446 -0.0878,0.0992 -0.0537,0.0546 -0.10216,0.0992 -0.10761,0.0992 -0.005,0 0.034,-0.0446 0.0878,-0.0992 z m 0.4271,-0.40753 c 0.68156,-0.70022 1.16199,-1.32437 1.61024,-2.0919 0.0605,-0.10365 0.17364,-0.31552 0.25135,-0.47084 0.11649,-0.23281 0.15435,-0.29084 0.21569,-0.33059 0.0409,-0.0265 0.45825,-0.26858 0.92739,-0.53792 0.46914,-0.26933 0.89761,-0.51954 0.95216,-0.55601 0.0546,-0.0365 0.2621,-0.15964 0.46121,-0.27371 0.28582,-0.16374 0.36202,-0.19985 0.36202,-0.17156 0,0.0595 -0.20848,0.74517 -0.31359,1.0314 -0.0541,0.14729 -0.14423,0.37752 -0.20032,0.51163 -0.11957,0.28584 -0.43009,0.93646 -0.44695,0.93646 -0.006,0 0.0203,-0.0634 0.0593,-0.14089 0.039,-0.0775 0.0667,-0.14513 0.0615,-0.15031 -0.01,-0.01 -1.27742,0.71326 -1.41145,0.8055 -0.0436,0.03 -0.54353,0.32085 -1.11087,0.64627 -0.56733,0.32542 -1.04936,0.60671 -1.07118,0.62509 -0.0218,0.0184 -0.10785,0.0717 -0.19117,0.11839 -0.0833,0.0467 -0.22168,0.14809 -0.30747,0.22523 -0.0979,0.0881 -0.0414,0.0225 0.1521,-0.17624 z" id="SvgjsPath1439"></path><path style="fill:#447cc0;stroke-width:0.0749737" d="m 113.63618,142.26072 c 0.003,-7.19664 0.009,-13.09595 0.0142,-13.10959 0.007,-0.0198 1.5699,-0.0238 7.74106,-0.0199 l 7.73201,0.005 -7.72864,0.005 -7.72865,0.005 -0.008,10.54819 c -0.004,5.80151 -0.003,11.69293 0.002,13.09205 0.007,1.68677 0.003,2.54642 -0.01,2.55147 -0.0132,0.005 -0.0181,-4.36001 -0.0146,-13.0772 z m 7.88951,10.69952 c 0,-1.30923 0.002,-1.84774 0.005,-1.1967 0.003,0.65104 0.003,1.72223 0,2.38042 -0.003,0.65818 -0.005,0.12551 -0.005,-1.18372 z m 8.86736,2.19197 c -0.0493,-0.0982 -0.0852,-0.17853 -0.0798,-0.17853 0.005,0 0.0468,0.0736 0.092,0.16365 0.0451,0.09 0.0921,0.17021 0.10437,0.17823 0.0159,0.0104 0.0152,0.0147 -0.002,0.0149 -0.0135,1.5e-4 -0.0649,-0.08 -0.11426,-0.17823 z m 9.41902,0.15373 c -8e-5,-0.0136 -0.0312,-0.0739 -0.0691,-0.13389 -0.11794,-0.18663 -0.15916,-0.25788 -0.14919,-0.25788 0.0109,0 0.25151,0.38749 0.25151,0.4051 0,0.006 -0.007,0.0115 -0.0165,0.0115 -0.009,0 -0.0166,-0.0111 -0.0167,-0.0248 z m -9.68681,-0.66949 c -0.0765,-0.15274 -0.13466,-0.27771 -0.12921,-0.27771 0.005,0 0.0725,0.12497 0.14904,0.27771 0.0765,0.15275 0.13466,0.27772 0.12921,0.27772 -0.005,0 -0.0725,-0.12497 -0.14904,-0.27772 z m 9.21252,-0.12398 c -0.30261,-0.4942 -0.29681,-0.48436 -0.27193,-0.4612 0.0117,0.0109 0.1305,0.19837 0.26395,0.41657 0.28947,0.47331 0.26193,0.42649 0.25087,0.42649 -0.005,0 -0.1143,-0.17183 -0.24289,-0.38186 z m -9.50016,-0.43145 c -0.0602,-0.12001 -0.10497,-0.2182 -0.0995,-0.2182 0.005,0 0.0592,0.0982 0.11935,0.2182 0.0602,0.12002 0.10497,0.21821 0.0995,0.21821 -0.005,0 -0.0592,-0.0982 -0.11936,-0.21821 z m 9.17064,-0.10414 c -0.0156,-0.0246 -0.0483,-0.0803 -0.0729,-0.12398 -0.0524,-0.0934 0.005,-0.0207 0.0729,0.0925 0.0483,0.0804 0.0483,0.10772 -4e-5,0.0315 z m -9.4186,-0.37194 c -0.0548,-0.1091 -0.0951,-0.19837 -0.0896,-0.19837 0.005,0 0.0547,0.0893 0.10946,0.19837 0.0548,0.1091 0.0951,0.19837 0.0896,0.19837 -0.005,0 -0.0547,-0.0893 -0.10947,-0.19837 z m 9.2599,0.11406 c -0.0155,-0.0246 -0.0483,-0.0803 -0.0729,-0.12398 -0.0524,-0.0934 0.005,-0.0207 0.0729,0.0925 0.0483,0.0804 0.0483,0.10773 -5e-5,0.0315 z m -0.464,-0.7538 c -0.18283,-0.2973 -0.3453,-0.56064 -0.36104,-0.58518 -0.0157,-0.0246 -0.0239,-0.0446 -0.0181,-0.0446 0.006,0 0.16009,0.24325 0.34292,0.54056 0.18284,0.2973 0.34531,0.56063 0.36105,0.58518 0.0157,0.0246 0.0239,0.0446 0.0181,0.0446 -0.006,0 -0.16009,-0.24325 -0.34293,-0.54056 z m -9.00418,0.243 c -0.0493,-0.0982 -0.0852,-0.17853 -0.0798,-0.17853 0.005,0 0.0503,0.0803 0.0996,0.17853 0.0493,0.0982 0.0852,0.17853 0.0798,0.17853 -0.005,0 -0.0503,-0.0803 -0.0996,-0.17853 z m -0.19837,-0.3769 c -0.0493,-0.0982 -0.0852,-0.17853 -0.0797,-0.17853 0.005,0 0.0503,0.0803 0.0996,0.17853 0.0493,0.0982 0.0852,0.17853 0.0797,0.17853 -0.005,0 -0.0503,-0.0803 -0.0996,-0.17853 z m -0.18845,-0.35706 c -0.0439,-0.0873 -0.0753,-0.15869 -0.0699,-0.15869 0.005,0 0.0458,0.0714 0.0897,0.15869 0.0439,0.0873 0.0753,0.1587 0.0699,0.1587 -0.005,0 -0.0458,-0.0714 -0.0897,-0.1587 z m 8.8952,-0.31243 c -0.0522,-0.0846 -0.10775,-0.17382 -0.12336,-0.19837 -0.0156,-0.0245 -0.0238,-0.0446 -0.0182,-0.0446 0.006,0 0.0529,0.0692 0.10512,0.15374 0.0522,0.0846 0.10775,0.17382 0.12335,0.19836 0.0156,0.0246 0.0238,0.0446 0.0182,0.0446 -0.006,0 -0.0529,-0.0692 -0.10513,-0.15374 z m -9.13437,-0.13886 c -0.18172,-0.34615 -0.18696,-0.35686 -0.16266,-0.33226 0.0263,0.0267 0.32805,0.60502 0.31563,0.60502 -0.005,0 -0.0742,-0.12274 -0.15297,-0.27276 z m 8.56907,-0.77363 c -0.49029,-0.79229 -0.46664,-0.75315 -0.44049,-0.729 0.0156,0.0144 0.66791,1.05827 0.84602,1.35386 0.008,0.0136 0.0108,0.0248 0.006,0.0248 -0.005,0 -0.19014,-0.29234 -0.41125,-0.64965 z m -8.83574,0.27276 c -0.0385,-0.0764 -0.0655,-0.13886 -0.06,-0.13886 0.005,0 0.0414,0.0625 0.0798,0.13886 0.0385,0.0764 0.0655,0.13885 0.06,0.13885 -0.005,0 -0.0414,-0.0625 -0.0798,-0.13885 z m -0.12104,-0.22317 c -0.018,-0.0355 -0.0777,-0.14927 -0.13251,-0.25292 -0.0548,-0.10364 -0.0905,-0.17952 -0.0793,-0.16861 0.0281,0.0273 0.26939,0.486 0.25566,0.486 -0.006,0 -0.0258,-0.029 -0.0438,-0.0645 z m -0.30545,-0.57031 c -0.0331,-0.0655 -0.0556,-0.11902 -0.0502,-0.11902 0.005,0 0.037,0.0536 0.07,0.11902 0.033,0.0655 0.0556,0.11902 0.0502,0.11902 -0.005,0 -0.037,-0.0536 -0.07,-0.11902 z m -0.10115,-0.18349 c -0.0128,-0.0245 -0.068,-0.12943 -0.12278,-0.23308 -0.0548,-0.10365 -0.0905,-0.17952 -0.0793,-0.16861 0.0278,0.0273 0.24946,0.44633 0.23608,0.44633 -0.006,0 -0.0212,-0.0201 -0.034,-0.0446 z m -6.4327,-2.66282 c -0.01,-1.90762 -0.008,-2.69921 0.007,-2.72756 0.0197,-0.0368 0.0389,-0.0396 0.24384,-0.0357 l 0.22247,0.004 -0.21748,0.006 c -0.14225,0.004 -0.22294,0.0147 -0.23327,0.0305 -0.009,0.0132 -0.01,1.23586 -0.002,2.71693 0.007,1.48106 0.009,2.69284 0.003,2.69284 -0.005,0 -0.0162,-1.20943 -0.0239,-2.68762 z m 14.56673,1.39327 c -0.41819,-0.66825 -0.97448,-1.54975 -1.23621,-1.95889 -0.26173,-0.40913 -0.49794,-0.78851 -0.52492,-0.84306 -0.027,-0.0546 -0.10856,-0.18845 -0.1813,-0.29755 -0.14554,-0.21828 -0.17645,-0.26907 -0.14489,-0.23804 0.0395,0.0388 0.3427,0.50506 0.3427,0.52695 0,0.0122 0.1637,0.27808 0.36377,0.59073 0.42784,0.66858 0.94741,1.49315 1.63312,2.5918 0.57216,0.91671 0.52705,0.84306 0.5164,0.84306 -0.005,0 -0.35049,-0.54675 -0.76867,-1.215 z m -8.4197,0.73892 c -0.0276,-0.0545 -0.0458,-0.0992 -0.0403,-0.0992 0.005,0 0.0325,0.0446 0.0602,0.0992 0.0276,0.0546 0.0458,0.0992 0.0403,0.0992 -0.005,0 -0.0325,-0.0446 -0.0602,-0.0992 z m -0.11902,-0.21821 c -0.0276,-0.0546 -0.0458,-0.0992 -0.0403,-0.0992 0.005,0 0.0325,0.0446 0.0602,0.0992 0.0276,0.0546 0.0458,0.0992 0.0403,0.0992 -0.005,0 -0.0325,-0.0446 -0.0602,-0.0992 z m -0.1091,-0.19836 c -0.0223,-0.0437 -0.036,-0.0794 -0.0306,-0.0794 0.005,0 0.0281,0.0357 0.0504,0.0794 0.0223,0.0436 0.036,0.0793 0.0306,0.0793 -0.005,0 -0.0281,-0.0357 -0.0504,-0.0793 z m -0.17853,-0.27772 c -0.0223,-0.0436 -0.036,-0.0794 -0.0306,-0.0794 0.005,0 0.0281,0.0357 0.0504,0.0794 0.0223,0.0436 0.036,0.0794 0.0306,0.0794 -0.005,0 -0.0281,-0.0357 -0.0504,-0.0794 z m -0.29906,-0.54055 c -0.12273,-0.22093 -0.40127,-0.71337 -0.61898,-1.09431 -0.35592,-0.62276 -0.46123,-0.82617 -0.41195,-0.79572 0.009,0.006 0.0221,0.0331 0.0292,0.0612 0.007,0.0281 0.14953,0.28928 0.31661,0.58041 0.25472,0.44384 0.82017,1.44974 0.90249,1.60548 0.013,0.0246 0.0196,0.0446 0.0147,0.0446 -0.005,0 -0.10932,-0.18076 -0.23204,-0.40169 z m -1.17944,-2.1027 c -0.31697,-0.51127 -0.64074,-0.86157 -1.10059,-1.19078 -0.0362,-0.0259 -0.0381,-0.0301 -0.007,-0.0157 0.10241,0.048 0.37074,0.26963 0.54509,0.45022 0.20241,0.20965 0.40591,0.47221 0.56692,0.73144 0.12971,0.20883 0.1294,0.20829 0.11887,0.20829 -0.005,0 -0.0603,-0.0826 -0.12284,-0.1835 z m 7.94529,-1.12574 c -0.0444,-0.0655 -0.0764,-0.11902 -0.0709,-0.11902 0.005,0 0.0463,0.0536 0.0907,0.11902 0.0444,0.0655 0.0764,0.11902 0.0709,0.11902 -0.005,0 -0.0463,-0.0536 -0.0908,-0.11902 z m -9.24394,-0.16861 c -0.0709,-0.0371 -0.12199,-0.0679 -0.1135,-0.0685 0.0211,-0.001 0.25235,0.11623 0.25235,0.12826 0,0.0133 0.005,0.0153 -0.13885,-0.0598 z m 9.03673,-0.11846 c -0.0624,-0.0815 -0.17302,-0.20058 -0.24574,-0.26457 -0.17426,-0.15334 -0.5324,-0.38102 -0.80539,-0.51201 -0.12072,-0.0579 -0.21057,-0.10555 -0.19966,-0.10584 0.0756,-0.002 0.69432,0.34742 0.91881,0.51888 0.10706,0.0818 0.30984,0.29585 0.39661,0.41872 0.10162,0.14389 0.0618,0.10992 -0.0646,-0.0552 z m -11.27243,-0.1641 c 0.0851,-0.004 0.21895,-0.004 0.29756,5e-5 0.0786,0.004 0.009,0.007 -0.15465,0.007 -0.16365,-3e-5 -0.22796,-0.003 -0.14291,-0.007 z m 1.05992,4.1e-4 c 0.0352,-0.004 0.0977,-0.004 0.13886,-1.5e-4 0.0412,0.004 0.0123,0.008 -0.064,0.008 -0.0764,8e-5 -0.11004,-0.003 -0.0748,-0.008 z m -0.39629,-0.0199 c 0.0355,-0.004 0.0935,-0.004 0.12894,0 0.0355,0.004 0.006,0.008 -0.0645,0.008 -0.0709,0 -0.0999,-0.004 -0.0645,-0.008 z m 8.8125,-0.8684 c -0.0382,-0.0147 -0.056,-0.0267 -0.0397,-0.0267 0.0164,0 0.061,0.012 0.0992,0.0267 0.0382,0.0147 0.056,0.0267 0.0397,0.0267 -0.0164,0 -0.061,-0.012 -0.0992,-0.0267 z m -0.20829,-0.0602 c -0.0782,-0.0271 -0.0784,-0.0273 -0.01,-0.0157 0.0809,0.0137 0.16365,0.0439 0.11902,0.0435 -0.0164,-1.5e-4 -0.0655,-0.0126 -0.1091,-0.0277 z m -0.41255,-0.10278 c -0.0633,-0.0166 -0.1111,-0.0341 -0.10634,-0.0388 0.009,-0.009 0.25446,0.0502 0.26928,0.0648 0.0147,0.0145 -0.0452,0.005 -0.16294,-0.0259 z m -0.9066,-0.25354 c -0.0382,-0.0147 -0.056,-0.0267 -0.0397,-0.0267 0.0164,0 0.061,0.012 0.0992,0.0267 0.0382,0.0147 0.056,0.0267 0.0397,0.0267 -0.0164,0 -0.061,-0.012 -0.0992,-0.0267 z m -0.21066,-0.0784 c -0.0161,-0.042 0.008,-0.0707 0.0581,-0.0681 0.0336,0.002 0.0356,0.004 0.009,0.0114 -0.0401,0.0105 -0.0465,0.0576 -0.01,0.0724 0.0146,0.006 0.0103,0.0107 -0.0105,0.0116 -0.0194,8.3e-4 -0.0403,-0.0114 -0.0464,-0.0272 z m 0.57764,-0.16956 c 0.0327,-0.008 0.0774,-0.0153 0.0992,-0.0155 0.0311,-2.1e-4 0.0289,0.003 -0.01,0.0155 -0.0273,0.009 -0.0719,0.0157 -0.0992,0.0155 -0.0445,-2.1e-4 -0.0435,-0.002 0.01,-0.0155 z m 0.28764,-0.0595 c 0.0273,-0.009 0.0674,-0.0159 0.0893,-0.0159 0.0314,0 0.0294,0.003 -0.01,0.0159 -0.0273,0.009 -0.0674,0.0159 -0.0893,0.0159 -0.0314,0 -0.0293,-0.003 0.01,-0.0159 z m 0.38682,-0.0905 c 0.0982,-0.026 0.18716,-0.0446 0.19772,-0.0414 0.0222,0.007 -0.31253,0.0932 -0.35074,0.0905 -0.014,-0.001 0.0548,-0.0231 0.15302,-0.0491 z m 0.64469,-0.17725 c 0.0382,-0.0147 0.0828,-0.0267 0.0992,-0.0267 0.0163,0 -10e-4,0.012 -0.0397,0.0267 -0.0382,0.0147 -0.0828,0.0267 -0.0992,0.0267 -0.0164,0 0.001,-0.012 0.0397,-0.0267 z m 1.26956,-0.46616 c 0.0382,-0.0209 0.0784,-0.038 0.0893,-0.038 0.0109,0 -0.0114,0.0171 -0.0496,0.038 -0.0382,0.0209 -0.0784,0.038 -0.0893,0.038 -0.0109,0 0.0114,-0.0171 0.0496,-0.038 z m 0.12067,-0.0473 c 0.0202,-0.0187 0.57361,-0.2891 0.57361,-0.28022 0,0.0109 -0.54678,0.28789 -0.56839,0.28789 -0.007,0 -0.01,-0.003 -0.005,-0.008 z m 0.59345,-0.29642 c 0,-0.004 0.0736,-0.0507 0.16365,-0.10286 0.09,-0.0522 0.18374,-0.10799 0.20829,-0.12398 0.0246,-0.016 0.0446,-0.0242 0.0446,-0.0182 0,0.006 -0.0736,0.055 -0.16365,0.10885 -0.1874,0.1122 -0.25292,0.14748 -0.25292,0.13618 z m 0.47552,-0.28548 c 0.027,-0.0194 0.12962,-0.0926 0.22812,-0.16269 0.62451,-0.44424 1.13857,-0.96566 1.52111,-1.54288 0.20527,-0.30975 0.20068,-0.30327 0.17303,-0.24397 -0.0454,0.0975 -0.281,0.44162 -0.43849,0.64059 -0.19676,0.24858 -0.63445,0.6868 -0.88909,0.89015 -0.20626,0.16472 -0.54073,0.40587 -0.60403,0.43551 -0.0249,0.0117 -0.0215,0.005 0.009,-0.0167 z m 2.08972,-2.30452 c 0.0784,-0.16251 0.1459,-0.29224 0.15008,-0.2883 0.009,0.009 -0.26941,0.58377 -0.28294,0.58377 -0.005,0 0.0545,-0.13296 0.13286,-0.29547 z m -14.91375,-0.40377 c -0.006,-0.0246 -0.008,-1.12029 -0.005,-2.43497 l 0.006,-2.39033 0.005,2.41116 c 0.004,1.84341 0.0105,2.41677 0.0287,2.43496 0.0181,0.0181 0.0182,0.0238 4.1e-4,0.0238 -0.0129,0 -0.0283,-0.0201 -0.0342,-0.0446 z m 5.37119,0.0304 c 0.0301,-0.005 0.0748,-0.004 0.0992,2.1e-4 0.0244,0.005 -2e-4,0.008 -0.0548,0.008 -0.0546,-1.5e-4 -0.0745,-0.004 -0.0444,-0.009 z m 0.20305,-0.0254 c 0.0327,-0.008 0.0774,-0.0153 0.0992,-0.0155 0.0311,-2.1e-4 0.0289,0.003 -0.01,0.0155 -0.0273,0.009 -0.0719,0.0157 -0.0992,0.0155 -0.0445,-2.1e-4 -0.0435,-0.002 0.01,-0.0155 z m 0.24638,-0.0609 c 0.0591,-0.021 0.11094,-0.0347 0.11513,-0.0305 0.009,0.009 -0.17143,0.0722 -0.20139,0.0701 -0.0117,-8.3e-4 0.0271,-0.0186 0.0863,-0.0396 z m 9.29273,0.0103 c 0.0424,-0.13822 0.14841,-0.43197 0.14966,-0.41453 0.002,0.0275 -0.13302,0.42795 -0.14943,0.44332 -0.007,0.007 -0.007,-0.006 -2.1e-4,-0.0288 z m -8.93386,-0.15359 c 0.006,-0.006 0.0815,-0.0576 0.16861,-0.11423 0.1875,-0.12192 0.54197,-0.47008 0.66485,-0.65301 0.0474,-0.0706 0.129,-0.20894 0.18131,-0.30746 0.10584,-0.19937 0.13076,-0.21766 0.0338,-0.0248 -0.19951,0.39685 -0.48744,0.73308 -0.83265,0.97233 -0.11725,0.0813 -0.23971,0.1534 -0.21594,0.12721 z m 9.1371,-0.49012 c 0.007,-0.0382 0.0204,-0.0873 0.03,-0.1091 0.0119,-0.0272 0.0134,-0.0179 0.005,0.0298 -0.007,0.0382 -0.0204,0.0873 -0.0299,0.1091 -0.0119,0.0272 -0.0134,0.0179 -0.005,-0.0298 z m -7.98367,-0.88274 c -5e-5,-0.0109 0.0119,-0.0511 0.0266,-0.0893 0.0147,-0.0382 0.027,-0.056 0.0274,-0.0397 4.1e-4,0.0164 -0.0117,0.0565 -0.0266,0.0893 -0.015,0.0327 -0.0273,0.0506 -0.0273,0.0397 z m 0.0588,-0.17853 c -0.001,-0.0109 0.0107,-0.0645 0.0259,-0.11902 0.0152,-0.0546 0.0277,-0.0813 0.0278,-0.0595 2.1e-4,0.0422 -0.0509,0.2121 -0.0538,0.17853 z m 0.0823,-0.44633 c 0,-0.0491 0.004,-0.0692 0.009,-0.0446 0.005,0.0246 0.005,0.0647 0,0.0893 -0.005,0.0246 -0.009,0.004 -0.009,-0.0446 z m 8.13336,-0.0893 c 1.5e-4,-0.0546 0.004,-0.0745 0.009,-0.0444 0.005,0.0301 0.004,0.0748 -2.1e-4,0.0992 -0.005,0.0244 -0.008,-2.1e-4 -0.008,-0.0548 z m 0.0208,-0.2678 c 0,-0.0818 0.004,-0.1153 0.008,-0.0744 0.004,0.0409 0.004,0.10786 0,0.14878 -0.004,0.0409 -0.008,0.007 -0.008,-0.0744 z m -8.15392,-0.0694 c 1.5e-4,-0.0545 0.004,-0.0745 0.009,-0.0444 0.005,0.0301 0.004,0.0748 -2e-4,0.0992 -0.005,0.0244 -0.008,-2.1e-4 -0.008,-0.0548 z m 8.17529,-0.47608 c 2e-5,-0.19639 0.003,-0.27404 0.007,-0.17257 0.004,0.10147 0.004,0.26215 -4e-5,0.35706 -0.004,0.0949 -0.007,0.0119 -0.007,-0.18449 z m -8.34627,-0.2116 c -0.0179,-0.0457 -0.0294,-0.0863 -0.0254,-0.0903 0.004,-0.004 0.0221,0.03 0.0403,0.0754 0.0182,0.0455 0.0296,0.0861 0.0254,0.0903 -0.004,0.004 -0.0223,-0.0297 -0.0403,-0.0754 z m 8.32458,-0.35375 c 0,-0.0709 0.004,-0.0999 0.008,-0.0645 0.004,0.0355 0.004,0.0935 0,0.12894 -0.004,0.0355 -0.008,0.006 -0.008,-0.0645 z m -8.58599,-0.14268 c -0.14701,-0.22568 -0.46205,-0.54784 -0.66619,-0.68126 -0.0829,-0.0542 -0.16767,-0.10973 -0.18845,-0.12349 -0.0208,-0.0138 -8.3e-4,-0.007 0.0444,0.0142 0.27979,0.13349 0.69252,0.54569 0.89966,0.89851 0.0796,0.13565 0.0311,0.0771 -0.0894,-0.10796 z m 8.56548,-0.10528 c 1.5e-4,-0.0546 0.004,-0.0745 0.009,-0.0444 0.005,0.0301 0.004,0.0748 -2.1e-4,0.0992 -0.005,0.0244 -0.008,-2e-4 -0.008,-0.0548 z m -9.78521,-0.85298 c -0.0382,-0.0147 -0.056,-0.027 -0.0397,-0.0274 0.0164,-4.1e-4 0.0565,0.0117 0.0893,0.0266 0.0766,0.0351 0.041,0.0356 -0.0496,6.2e-4 z m -5.79526,-0.0943 c 0.008,-0.008 1.22849,-0.0127 2.7117,-0.01 l 2.69674,0.005 -2.71169,0.01 c -1.49143,0.005 -2.70497,0.003 -2.69675,-0.005 z m 15.37948,-0.19639 c -0.013,-0.0561 -0.0199,-0.10568 -0.0156,-0.11009 0.004,-0.004 0.019,0.0376 0.0323,0.0933 0.0134,0.0557 0.0204,0.10527 0.0156,0.11009 -0.005,0.005 -0.0194,-0.0372 -0.0323,-0.0933 z m -0.34689,-1.03177 c -0.0291,-0.0673 -0.0496,-0.12559 -0.0457,-0.12948 0.004,-0.004 0.0309,0.0479 0.0601,0.11516 0.0291,0.0672 0.0497,0.12548 0.0457,0.12947 -0.004,0.004 -0.031,-0.0478 -0.0601,-0.11515 z m -0.15783,-0.34453 c -0.0403,-0.0814 -0.069,-0.14808 -0.0638,-0.14808 0.0133,0 0.15306,0.28013 0.14422,0.28897 -0.004,0.004 -0.0402,-0.0594 -0.0805,-0.14089 z m -0.15952,-0.29219 c -0.27887,-0.49866 -0.62393,-0.92619 -1.1341,-1.40514 -0.46118,-0.43296 -0.85945,-0.73921 -1.30917,-1.00669 -0.29234,-0.17388 -0.32203,-0.19371 -0.20829,-0.13915 0.13154,0.0631 0.46806,0.27429 0.68208,0.42804 0.50695,0.3642 1.24036,1.04988 1.52311,1.42398 0.21969,0.29067 0.55995,0.82323 0.52597,0.82323 -0.006,0 -0.0414,-0.0559 -0.0796,-0.12427 z m -2.8896,-2.6628 c -0.0709,-0.0371 -0.12199,-0.0679 -0.1135,-0.0685 0.0211,-0.001 0.25236,0.11623 0.25236,0.12826 0,0.0133 0.005,0.0153 -0.13886,-0.0598 z m -0.30747,-0.13917 c -0.0764,-0.0365 -0.12993,-0.0667 -0.11902,-0.067 0.0109,-4.1e-4 0.0823,0.0296 0.15869,0.0664 0.0764,0.0368 0.12993,0.067 0.11902,0.067 -0.0109,3e-5 -0.0823,-0.0298 -0.15869,-0.0664 z m -0.5951,-0.22781 c -0.0873,-0.031 -0.1491,-0.0571 -0.13738,-0.058 0.0246,-0.002 0.30744,0.0925 0.32243,0.10746 0.019,0.019 -0.0269,0.007 -0.18505,-0.0495 z m -0.58519,-0.16861 c -0.0927,-0.0252 -0.15671,-0.0466 -0.14216,-0.0477 0.0299,-0.002 0.34595,0.0763 0.35871,0.089 0.0165,0.0165 -0.0514,0.004 -0.21655,-0.0413 z m -0.43641,-0.0992 c -0.06,-0.0139 -0.0868,-0.0255 -0.0595,-0.0256 0.0273,-1.8e-4 0.0942,0.0111 0.14878,0.0252 0.12876,0.0331 0.0531,0.0335 -0.0893,4.2e-4 z m -1.215,-0.18262 c 0.0246,-0.005 0.0647,-0.005 0.0893,0 0.0246,0.005 0.004,0.009 -0.0446,0.009 -0.0491,0 -0.0692,-0.004 -0.0446,-0.009 z m -0.22813,-0.02 c 0.03,-0.005 0.0791,-0.005 0.10911,0 0.03,0.005 0.005,0.008 -0.0545,0.008 -0.06,0 -0.0846,-0.004 -0.0546,-0.008 z m -0.28807,-0.0199 c 0.0352,-0.004 0.0977,-0.004 0.13886,-1.5e-4 0.0412,0.004 0.0123,0.008 -0.064,0.008 -0.0764,9e-5 -0.11005,-0.003 -0.0748,-0.008 z m -0.38638,-0.0201 c 0.0518,-0.004 0.13663,-0.004 0.18845,0 0.0518,0.004 0.009,0.007 -0.0942,0.007 -0.10365,0 -0.14605,-0.003 -0.0942,-0.007 z" id="SvgjsPath1438"></path><path style="fill:#7b7b82;stroke-width:0.0749737" d="m 121.55958,148.90975 c 0.003,-1.46065 0.005,-1.55145 0.0171,-0.81944 0.0216,1.34139 0.0211,2.43614 -10e-4,2.44984 -0.0132,0.008 -0.0185,-0.53937 -0.016,-1.6304 z m -7.94995,1.16424 c 0,-0.23457 0.003,-0.33053 0.006,-0.21325 0.004,0.11729 0.004,0.30921 0,0.4265 -0.004,0.11728 -0.006,0.0213 -0.006,-0.21325 z m 9.26528,0.26362 c 0.0109,-0.0105 0.18051,-0.11128 0.3769,-0.22386 0.19638,-0.11258 0.36152,-0.21049 0.36698,-0.21758 0.005,-0.007 0.49641,-0.29252 1.09102,-0.63429 0.59461,-0.34176 1.08557,-0.62761 1.09103,-0.6352 0.005,-0.008 0.17729,-0.10992 0.38185,-0.22739 0.20457,-0.11748 0.37194,-0.21632 0.37194,-0.21967 0,-0.0176 -0.31991,-0.62775 -0.45844,-0.87438 -0.0881,-0.1568 -0.15709,-0.29355 -0.15336,-0.30388 0.009,-0.0243 0.49802,0.83012 1.34866,2.3555 0.0325,0.0584 0.0512,0.10118 0.0415,0.0952 -0.01,-0.006 -0.0973,0.0112 -0.19468,0.0383 -1.0085,0.28048 -2.45392,0.58988 -3.59883,0.77035 -0.54397,0.0857 -0.6913,0.10281 -0.66453,0.077 z m 11.16708,-4.35732 c -0.42332,-0.63672 -0.56496,-0.8248 -0.74791,-0.99315 -0.0897,-0.0825 -0.17212,-0.1502 -0.18316,-0.15037 -0.011,-1.5e-4 0.0714,-0.049 0.18325,-0.10862 0.94409,-0.503 1.86403,-1.16042 2.77073,-1.98008 0.19006,-0.17181 0.34988,-0.29782 0.44633,-0.3519 0.0826,-0.0464 0.1681,-0.0993 0.18992,-0.11769 0.0218,-0.0184 0.50386,-0.29967 1.07119,-0.62509 0.56733,-0.32542 1.06722,-0.61624 1.11086,-0.64627 0.13375,-0.092 1.40143,-0.81554 1.41143,-0.80554 0.0133,0.0133 -0.14928,0.33253 -0.3353,0.65822 -0.95098,1.66503 -2.3459,3.18788 -4.19331,4.5779 -0.22236,0.1673 -0.9495,0.67009 -1.24372,0.85998 l -0.18844,0.12161 z" id="SvgjsPath1437"></path><path style="fill:#2064b5;stroke-width:0.0749737" d="m 113.6508,155.3391 c 0.0131,-0.006 0.0165,-0.86575 0.01,-2.55242 -0.005,-1.39924 -0.006,-7.29078 -0.002,-13.0923 l 0.008,-10.54821 7.71873,10e-5 c 4.85103,7e-5 7.85875,0.007 8.09562,0.0198 2.06166,0.10793 3.43175,0.49225 4.6455,1.30311 0.61272,0.40933 1.3642,1.10762 1.75028,1.6264 0.60584,0.81408 0.99867,1.76846 1.18069,2.86853 0.0705,0.4258 0.09,0.63805 0.10361,1.1249 0.0369,1.32249 -0.24447,2.75925 -0.73624,3.75907 -0.55686,1.13214 -1.50744,2.03698 -2.84102,2.70431 -0.90984,0.45529 -1.82191,0.75356 -3.0713,1.00442 -0.44571,0.0895 -0.51576,0.10841 -0.51576,0.13936 0,0.0436 0.22662,0.11437 1.12078,0.35001 0.99554,0.26235 1.3437,0.39567 1.80621,0.69167 0.42809,0.27397 0.55131,0.4119 1.07407,1.20237 0.15829,0.23933 0.30981,0.47957 0.33672,0.53385 0.0269,0.0543 0.26306,0.43343 0.52477,0.84257 0.86117,1.34625 2.62282,4.175 4.18174,6.71475 0.36832,0.60007 0.69099,1.12412 0.71705,1.16456 0.0261,0.0404 0.0497,0.0851 0.0526,0.0992 0.003,0.0141 0.0231,0.0315 0.0449,0.0385 0.0218,0.007 -2.08039,0.0131 -4.67157,0.0133 -2.59118,2.1e-4 -4.69907,-0.004 -4.6842,-0.0103 0.0156,-0.006 0.0189,-0.016 0.008,-0.0232 -0.0105,-0.007 -0.16455,-0.29366 -0.34221,-0.63734 -1.14008,-2.20546 -2.69503,-5.11287 -2.79551,-5.22699 -0.0192,-0.0218 -0.16749,-0.28069 -0.32952,-0.57527 -0.16203,-0.29458 -0.46584,-0.83522 -0.67514,-1.20142 -0.2093,-0.36621 -0.38743,-0.68753 -0.39585,-0.71405 -0.008,-0.0265 -0.0733,-0.14199 -0.14408,-0.25659 -0.36316,-0.5876 -0.79628,-1.04093 -1.22197,-1.27899 -0.36227,-0.20259 -0.73182,-0.29751 -1.27186,-0.32668 -0.32715,-0.0177 -1.75694,0.0149 -1.78435,0.0407 -0.0305,0.0287 -0.0357,10.17848 -0.005,10.19785 0.0133,0.008 -1.76119,0.0148 -3.94324,0.0141 -2.18204,-6.2e-4 -3.95843,-0.005 -3.94752,-0.01 z m 13.61796,-15.93381 c 0.43252,-0.13293 0.83145,-0.39563 1.11854,-0.73658 0.59193,-0.70297 0.77811,-1.57397 0.51468,-2.40787 -0.15537,-0.49183 -0.49697,-0.97648 -0.90652,-1.28614 -0.19563,-0.14791 -0.53763,-0.3162 -0.76638,-0.37711 l -0.16861,-0.0449 -2.74731,-0.006 c -2.57629,-0.006 -2.74887,-0.004 -2.7722,0.0281 -0.0196,0.0268 -0.0249,0.54016 -0.0249,2.42886 0,1.31716 0.005,2.40914 0.0122,2.42662 0.0111,0.029 0.2584,0.0313 2.80195,0.0262 l 2.78975,-0.006 z" id="SvgjsPath1436"></path></g><text xml:space="preserve" transform="matrix(0.96185011,-0.34176287,0.34176287,0.96185011,-77.399717,-50.187645)" id="SvgjsText1435" style="font-style:normal;font-variant:normal;font-weight:normal;font-stretch:normal;font-family:Z003;-inkscape-font-specification:Z003;text-align:start;writing-mode:lr-tb;direction:ltr;white-space:pre;shape-inside:url(#rect2);fill:#00526e;fill-opacity:1" svgjs:data="{&quot;leading&quot;:&quot;1.3&quot;}"><tspan x="47.458984" y="108.03806" id="SvgjsTspan1434">API</tspan></text></g></svg><style>@media (prefers-color-scheme: light) { :root { filter: none; } }
@media (prefers-color-scheme: dark) { :root { filter: none; } }
</style></svg>